**ABCDEFGHIJKLMNOPQRSTUVWXYZabcdefghijklmnopqrstuvwxyz**************************
**PARASOLID !"#$%&'()*+,-./:;<=>?@[\]^_`{|}~0123456789**************************
**PART1;
MC=AMD64;
MC_MODEL=Intel64 Family 6 Model 61 Stepping 4, GenuineIntel;
MC_ID=unknown;
OS=Windows_NT;
OS_RELEASE=unknown;
FRU=Parasolid Version 28.0, build 204, 11- 9-2015;
APPL=SOLIDWORKS 2016-2016040;
SITE=;
USER=unknown;
FORMAT=text;
GUISE=transmit;
KEY=Nosecone Prototype v5_V2;
FILE=Nosecone Prototype v5_V2.x_t;
DATE=Wed May 31 21:56:06 2017;
**PART2;
SCH=SCH_2800204_28002;
USFLD_SIZE=0;
**PART3;
**END_OF_HEADER*****************************************************************
T51 : TRANSMIT FILE created by modeller version 280020423 SCH_2800204_28002_1300
6200 0 12 30 CCCCCCCCCCCCCDI5 owner1040 0 CCCCCCCCCA13 boundary_mesh1006 0 A16 i
ndex_map_offset0 0 1 dA9 index_map82 0 A17 node_id_index_map82 0 A20 schema_embe
dding_map82 0 A5 child12 0 A14 lowest_node_id0 0 1 dZ1 191 0 2 0 0 0 0 1e3 1e-8
 0 3 0 1 0 1 1 4 5 6 7 8 9 10 0 0 0 0 0 0 0 70 11 CI9 list_type0 0 1 uI10 notran
smit0 0 1 lCCCDCCDI12 finger_index0 0 1 dI12 finger_block1012 0 CZ2 0 4 T1 0 0 2
 20 1 11 11 13 255 4 109 0 1 12 13 0 0 14 0 68 255 5 70 0 15 16 0 0 +17 .8073449
63977018 0 0 1 0 0 .600078163659281 -141330904782137e-28 0 ?0 ?0 1 0 ?31 255 6 7
3 0 9 18 0 0 +916606769618689e-20 0 0 1 0 0 0 0 -1 .0750000042008408 29 255 7 33
 0 10 19 0 .600078163658702 0 0 19 8 CCCCCCCA5 owner12 0 Z8 132 0 1 20 0 21 V0 1
6 255 9 48 0 ?22 0 23 6 0 0 1 18 255 10 31 0 24 0 25 7 ?1 17 255 24 0 26 24 24 1
0 0 0 0 0 ?18 25 28 0 27 10 0 19 ?1 17 27 0 28 27 27 25 0 0 0 0 ?29 19 30 0 25 0
 7 .574199139957657 1734723475976805e-33 0 15 255 28 90 0 27 29 30 14 255 29 56
 31 ?32 0 28 12 16 +0 0 32 0 33 15 30 55 0 34 29 0 17 34 0 30 34 34 0 22 9 0 0 -
17 22 0 35 22 22 0 34 9 0 0 +15 35 91 0 22 32 36 14 32 51 37 ?38 29 35 12 39 +0
 0 38 29 33 15 36 50 0 40 32 0 17 40 0 36 40 40 0 41 23 0 0 -17 41 0 42 41 41 0
 40 23 0 0 +16 23 43 0 ?41 9 43 18 0 0 1 16 43 113 0 ?44 23 45 46 0 0 1 31 18 72
 0 23 47 6 0 +0 0 0 1 0 0 0 0 -1 .0750000042008407 134 255 47 14 0 1 17 18 48 +4
9 50 134 17 5 0 1 51 47 52 +53 54 141 255 48 16 48 48 47 136 255 49 3 41 3 39 6
 FFF1 55 56 57 135 255 50 2 0 45 255 123 55 916606769617147e-20 .075000004200840
8 0 .0001868816065597625 .0750001671573559 0 .000534133329112694 .07499915637394
58 0 .001294061764304734 .0749939509512598 0 .0026508407247628 .0749815744673719
 0 .00534394618076402 .0749463675726472 0 .01080127715447436 .0748423703082249 0
 .01860269988376195 .0746306680190938 0 .0279913838122266 .0743039379726201 0 .0
405172723080439 .0737891330724458 0 .0561874829865754 .0730187360852701 0 .08126
67600480319 .0715669904853474 0 .1126172003261142 .0693989842819919 0 .150220225
252169 .0663336913379448 0 .1877974609483995 .062855748159817 0 .237857348042608
 .0577062632311497 0 .2878418710923415 .0518214267294365 0 .337722926010248 .045
1892856451797 0 .375071423672004 .0398189395947213 0 .412342788143001 .034017550
3126943 0 .443319678352006 .02877669543387435 0 .468031563966371 .02429181541610
39 0 .486522850649303 .02076286407685095 0 .504959778915478 .01704509556087735 0
 .523323833743241 .01310116444451234 0 .538542854137613 .00958356535899237 0 .55
063314430608 .00658429257627179 0 .559646547279761 .00422333465365884 0 .5670851
35139659 .00214290836215957 0 .5729731448744 .0003880367805718915 0 .57734134828
1222 -.000978928425840742 0 .581639989546715 -.0024081149530362 0 .5851410450068
68 -.003662040796377945 0 .587836227677858 -.00470680991227572 0 .58946210316801
9 -.00537938968634138 0 .59069051574429 -.00592143239817902 0 .591570623107501 -
.00633058076306824 0 .592235899233015 -.00666009471650042 0 .592720448929127 -.0
069159818657874 0 .592917047191588 -.00702486958265249 0 .593019958730388 -.0070
8364486582603 0 127 255 39 56 4 1 1 1 1 1 1 1 1 1 1 1 1 1 1 1 1 1 1 1 1 1 1 1 1
 1 1 1 1 1 1 1 1 1 1 1 1 1 4 128 255 39 57 .00438075986987207 .00535304428406157
 .00632532869825119 .00826989752663031 .01215903518338866 .01993731049690525 .03
54938611239386 .0510504117509719 .0666069623780051 .0977200636320715 .1288331648
86138 .191059367394271 .253285569902404 .315511772410537 .37773797491867 .502190
379934936 .564416582443069 .626642784951202 .688868987459335 .751095189967468 .7
82208291221535 .813321392475601 .844434493729668 .875547594983734 .9066606962378
01 .922217246864834 .937773797491867 .9533303481189 .961108623432417 .9688868987
45933 .97666517405945 .984443449372967 .988332587029725 .992221724686483 .994166
293514863 .996110862343242 .998055431171621 .99902771558581 1 68 16 69 0 29 39 5
 0 +47 .807344963977018 0 0 1 0 0 ?.574199139926158 975891444748595e-26 0 ?.9632
97425531804 -205524062810132e-30 1 0 0 51 255 39 68 0 32 58 16 0 -.8073449639770
18 0 0 1 0 0 .0750000042008408 0 0 -1 51 58 134 0 13 59 39 0 --.001 0 0 1 0 0 .0
85 0 0 -1 14 13 120 60 ?61 0 62 4 58 -0 0 61 0 21 50 255 59 135 0 38 63 58 0 +0
 0 0 -1 0 0 0 0 1 14 38 117 64 ?0 32 42 12 59 -0 0 0 32 33 50 63 136 0 61 0 59 0
 +-.001 0 0 -1 0 0 0 0 1 14 61 125 65 ?15 13 66 4 63 +0 0 15 13 21 81 255 1 65 1
90 67 61 68 0 64 69 70 14 15 64 69 ?0 61 71 4 5 +0 0 0 61 21 15 66 127 0 44 61 0
 13 21 133 0 0 0 0 0 0 8 13 17 44 0 66 44 44 0 72 43 0 0 +17 72 0 62 72 72 0 44
 43 0 0 -15 62 123 0 72 13 73 15 73 124 0 74 13 0 17 74 0 73 74 74 0 75 45 0 0 +
17 75 0 71 75 75 0 74 45 0 0 -16 45 110 0 ?74 43 0 51 0 0 1 31 51 138 0 45 46 17
 0 +0 0 0 -1 0 0 0 0 1 .085 31 46 139 0 43 0 51 0 +-.001 0 0 -1 0 0 0 0 1 .085 1
5 71 93 0 75 15 26 15 26 63 0 24 15 0 81 1 69 191 67 15 76 0 65 0 77 80 255 1 67
 78 79 9000 1 1 1 1 1 1 1 1 0 FFFFTFTFFFFFFF1 81 1 76 168 80 15 0 69 68 81 82 82
 255 1 77 -221507862 80 1 80 0 83 8001 0 0 0 0 3 5 0 0 0 FFFFTFTFFFFFFF2 81 1 68
 167 80 61 0 65 84 76 85 81 1 81 169 80 29 0 31 76 86 87 83 255 3 82 1 1 1 81 1
 31 186 67 29 81 0 0 37 88 81 1 86 170 80 32 0 37 81 89 90 83 3 87 1 1 1 81 1 37
 187 67 32 86 0 31 60 91 81 1 89 171 80 38 0 64 86 0 92 83 3 90 1 1 1 81 1 64 18
9 67 38 89 0 60 65 93 83 3 92 1 1 1 81 1 60 188 67 13 84 0 37 64 94 82 1 93 -562
757514 81 1 84 166 80 13 0 60 0 68 95 82 1 94 -565182346 83 3 95 1 1 1 82 1 91 -
223015190 82 1 88 -222425366 83 3 85 1 1 1 79 255 15 83 SDL/TYSA_COLOUR79 14 79
 SWEntUnchanged82 1 70 -567148426 15 42 119 0 41 38 0 13 12 35 0 1 0 29 0 0 14 0
 13 33 38 0 0 0 0 0 0 20 29 19 20 39 0 1 14 8 33 V0 19 14 34 0 1 0 20 4 S0 141 5
2 5 52 52 17 136 53 4 56 3 53 6 FFF1 96 97 98 135 54 2 0 45 168 96 .600078163659
281 -141330904782137e-28 0 .60007633691295 822382630650684e-20 0 .60007129803136
9 242098556474131e-19 0 .600056005800075 543663206421878e-19 0 .600029311764542
 970890482593302e-19 0 .599994228543702 .0001444044093906456 0 .599943465753697
 .000205445940256752 0 .599881252016028 .000272706577859105 0 .599786903268203 .
000366115077513159 0 .599665038216854 .000475118658921057 0 .599524628882007 .00
0590888217950493 0 .599300458165461 .00076312316729027 0 .598958414656935 .00100
4934688245126 0 .598363482417763 .00138593877798764 0 .597296758456752 .00199366
6769068065 0 .595429993033084 .00293209129367263 0 .592041645703403 .00442222111
9857975 0 .585924787707226 .00675363348357842 0 .575746644003178 .01009922983515
838 0 .561897869470923 .0140538530691994 0 .545157907439571 .01832061592748185 0
 .522201765178252 .0236518357327474 0 .49450405194195 .02947448987404925 0 .4619
9684423423 .03567836979383065 0 .424669525588128 .04215142003146445 0 .387257009
90528 .0481093033485499 0 .3497760364316185 .0536188613992788 0 .312237681800319
5 .0587219343277384 0 .2746493977818495 .0634428549957297 0 .2417206330346395 .0
672498244604621 0 .213470438041903 .0702821891303877 0 .189912418637255 .0726521
851092144 0 .171056559963707 .0744518723407671 0 .152191471096701 .0761522669171
642 0 .1356765917529542 .0775495884993504 0 .1215154028380864 .0786791645826517
 0 .109710712903391 .0795727106499339 0 .100264751335929 .0802577873428294 0 .09
08165847117655 .0809118161168387 0 .0825475114567174 .0814555885962617 0 .075458
358302319 .081900182764911 0 .068368111968771 .0823267433569268 0 .0612767708606
688 .082734659882911 0 .0530019317365987 .0831818512652792 0 .0435427535118201 .
0836500968255965 0 .03461348350585525 .0840471840014953 0 .0271313134929012 .084
3404868516238 0 .02109716807654225 .0845481920295141 0 .0165117712713218 .084688
2724706679 0 .01284310915185116 .0847882419372487 0 .00917410054861565 .08487516
74965178 0 .00596341568617792 .0849364848546646 0 .003211182754612905 .084977601
2147764 0 .00137624905795546 .0849938422169309 0 .000458752442108802 .0850004204
983588 0 947592299082031e-27 .085000000002591 0 127 53 97 5 1 1 1 1 1 1 1 1 1 1
 1 1 1 1 1 1 1 1 1 1 1 1 1 1 1 1 1 1 1 1 1 1 1 1 1 1 1 1 1 1 1 1 1 1 1 1 1 1 1 1
 1 5 128 53 98 0 552559393892231e-19 .0001105118787784462 .0002210237575568925 .
0003315356363353385 .0004420475151137845 .000632678617709615 .000823309720305445
 .001204571925497104 .001516979688291265 .00182938745108542 .002682441569512055
 .00395891462865551 .00616190820558167 .00990096514744455 .0164192661002055 .028
29563429123475 .0492022921024515 .0803491112455808 .1111299503712898 .1419107894
96999 .204204084417678 .266497270628217 .3287902331049635 .391083325799027 .4533
76451960786 .515669572450935 .577962671419636 .640255784050411 .671402300126254
 .702548816202098 .733695368682663 .764841921163228 .795988516198142 .8115618137
15599 .827135111233056 .842708426516655 .858281741800254 .873855057083853 .88164
1714725652 .889428372367451 .9050016273404 .920574882313349 .936148137286298 .95
1721392259246 .963791044194435 .969825870162029 .975860696129623 .98189552209721
7 .987930348064812 .993965174032406 .996982587016203 1 74 4 CI16 index_map_offse
t0 0 1 dCCZ20 11 2 0 0 69 89 0 0 0 0 0 0 0 0 0 0 0 0 0 0 0 0 0 0 1 0 
