  0
SECTION
  2
HEADER
  9
$ACADVER
  1
AC1003
  9
$EXTMIN
 10
0.999999998186964
 20
7.65748031685643
  9
$EXTMAX
 10
7.65748031617132
 20
0.999999998531209
  9
$INSBASE
 10
4.32874015717914
 20
4.32874015769382
999
Created with OMAX Layout for Windows. (http://www.omax.com) 2017-02-09
  0
ENDSEC
  0
SECTION
  2
TABLES
  0
TABLE
  2
LAYER
 70
    10
  0
LAYER
  2
0
 70
     0
 62
     7
  6
CONTINUOUS
  0
LAYER
  2
1
 70
     0
 62
     7
  6
CONTINUOUS
  0
LAYER
  2
2
 70
     0
 62
     7
  6
CONTINUOUS
  0
LAYER
  2
3
 70
     0
 62
     7
  6
CONTINUOUS
  0
LAYER
  2
4
 70
     0
 62
     7
  6
CONTINUOUS
  0
LAYER
  2
5
 70
     0
 62
     7
  6
CONTINUOUS
  0
LAYER
  2
6
 70
     0
 62
     7
  6
CONTINUOUS
  0
LAYER
  2
7
 70
     0
 62
     7
  6
CONTINUOUS
  0
LAYER
  2
8
 70
     0
 62
     7
  6
CONTINUOUS
  0
LAYER
  2
9
 70
     0
 62
     7
  6
CONTINUOUS
  0
LAYER
  2
10
 70
     0
 62
     7
  6
CONTINUOUS
  0
LAYER
  2
11
 70
     0
 62
     7
  6
CONTINUOUS
  0
LAYER
  2
12
 70
     0
 62
     7
  6
CONTINUOUS
  0
LAYER
  2
13
 70
     0
 62
     7
  6
CONTINUOUS
  0
LAYER
  2
14
 70
     0
 62
     7
  6
CONTINUOUS
  0
LAYER
  2
15
 70
     0
 62
     7
  6
CONTINUOUS
  0
LAYER
  2
16
 70
     0
 62
     7
  6
CONTINUOUS
  0
LAYER
  2
17
 70
     0
 62
     7
  6
CONTINUOUS
  0
LAYER
  2
18
 70
     0
 62
     7
  6
CONTINUOUS
  0
LAYER
  2
19
 70
     0
 62
     7
  6
CONTINUOUS
  0
LAYER
  2
20
 70
     0
 62
     7
  6
CONTINUOUS
  0
LAYER
  2
21
 70
     0
 62
     7
  6
CONTINUOUS
  0
LAYER
  2
22
 70
     0
 62
     7
  6
CONTINUOUS
  0
LAYER
  2
23
 70
     0
 62
     7
  6
CONTINUOUS
  0
LAYER
  2
24
 70
     0
 62
     7
  6
CONTINUOUS
  0
LAYER
  2
25
 70
     0
 62
     7
  6
CONTINUOUS
  0
LAYER
  2
26
 70
     0
 62
     7
  6
CONTINUOUS
  0
LAYER
  2
27
 70
     0
 62
     7
  6
CONTINUOUS
  0
LAYER
  2
28
 70
     0
 62
     7
  6
CONTINUOUS
  0
LAYER
  2
29
 70
     0
 62
     7
  6
CONTINUOUS
  0
LAYER
  2
30
 70
     0
 62
     7
  6
CONTINUOUS
  0
LAYER
  2
31
 70
     0
 62
     7
  6
CONTINUOUS
  0
ENDTAB
  0
ENDSEC
  0
SECTION
  2
ENTITIES
  0
LINE
  8
3
  6
CONTINUOUS
 62
3
 10
7.20264871445742
 20
4.52559055117763
 30
0.0
 11
6.59301437810702
 21
4.52559055118462
 31
0.0
  0
ARC
  8
3
  6
CONTINUOUS
 62
3
 10
6.59301437808947
 20
4.68307086613251
 30
0.0
 40
0.15748031494789
 50
188.893944495096
 51
270.000000006386
  0
ARC
  8
3
  6
CONTINUOUS
 62
3
 10
4.32874016111671
 20
4.32874015954891
 30
0.0
 40
2.13435038981099
 50
8.89394445923075
 51
51.1060555414124
  0
ARC
  8
3
  6
CONTINUOUS
 62
3
 10
5.76773666281914
 20
6.11249379932464
 30
0.0
 40
0.157480314958672
 50
150.000000000335
 51
231.106055511624
  0
ARC
  8
3
  6
CONTINUOUS
 62
3
 10
6.07255383098104
 20
6.64045262163619
 30
0.0
 40
0.157480314940561
 50
52.9713442292261
 51
150.000000001716
  0
ARC
  8
3
  6
CONTINUOUS
 62
3
 10
4.32874016675309
 20
4.32874016281394
 30
0.0
 40
3.05314959644046
 50
7.02865568411784
 51
52.9713443164455
  0
ARC
  8
3
  6
CONTINUOUS
 62
3
 10
7.20264871444018
 20
4.68307086612576
 30
0.0
 40
0.157480314948124
 50
270.000000006273
 51
7.02865576847338
  0
LINE
  8
3
  6
CONTINUOUS
 62
3
 10
5.93617187765528
 20
1.93828753583205
 30
0.0
 11
5.63135470948811
 21
2.46624635813477
 31
0.0
  0
ARC
  8
3
  6
CONTINUOUS
 62
3
 10
5.7677366631122
 20
2.54498651558496
 30
0.0
 40
0.157480315181308
 50
128.893944429701
 51
209.999999940991
  0
ARC
  8
3
  6
CONTINUOUS
 62
3
 10
4.32874016148144
 20
4.32874015516989
 30
0.0
 40
2.13435038939484
 50
308.893944464636
 51
351.10605554567
  0
ARC
  8
3
  6
CONTINUOUS
 62
3
 10
6.59301437806664
 20
3.9744094488372
 30
0.0
 40
0.157480314942357
 50
89.9999999955969
 51
171.106055506886
  0
LINE
  8
3
  6
CONTINUOUS
 62
3
 10
6.59301437807874
 20
4.13188976377956
 30
0.0
 11
7.20264871442914
 21
4.13188976376202
 31
0.0
  0
ARC
  8
3
  6
CONTINUOUS
 62
3
 10
7.20264871470839
 20
3.97440944905361
 30
0.0
 40
0.15748031470841
 50
352.971344339398
 51
90.0000001015985
  0
ARC
  8
3
  6
CONTINUOUS
 62
3
 10
4.32874016614653
 20
4.32874015247534
 30
0.0
 40
3.05314959708239
 50
307.028655689402
 51
352.971344321408
  0
ARC
  8
3
  6
CONTINUOUS
 62
3
 10
2.06446593670223
 20
3.97440944861339
 30
0.0
 40
0.157480315166167
 50
8.89394442334412
 51
89.9999999346338
  0
ARC
  8
3
  6
CONTINUOUS
 62
3
 10
4.32874015349072
 20
4.32874015515635
 30
0.0
 40
2.13435038940438
 50
188.893944464211
 51
231.106055545245
  0
ARC
  8
3
  6
CONTINUOUS
 62
3
 10
2.88974365214345
 20
2.54498651562549
 30
0.0
 40
0.157480314951693
 50
330.000000003304
 51
51.1060555043042
  0
LINE
  8
3
  6
CONTINUOUS
 62
3
 10
3.02612560549213
 20
2.46624635815751
 30
0.0
 11
2.72130843732755
 21
1.93828753588454
 31
0.0
  0
ARC
  8
3
  6
CONTINUOUS
 62
3
 10
2.58492648403774
 20
2.01702769298212
 30
0.0
 40
0.157480314715506
 50
232.971344336814
 51
330.000000109304
  0
ARC
  8
3
  6
CONTINUOUS
 62
3
 10
4.32874014881203
 20
4.32874015247614
 30
0.0
 40
3.05314959708071
 50
187.028655689395
 51
232.971344321401
  0
ARC
  8
3
  6
CONTINUOUS
 62
3
 10
1.45483160053304
 20
3.97440944882068
 30
0.0
 40
0.157480314958879
 50
90.0000000005618
 51
187.028655773052
  0
LINE
  8
3
  6
CONTINUOUS
 62
3
 10
3.06226332069233
 20
1.74143714215927
 30
0.0
 11
3.36708048887555
 21
2.26939596445498
 31
0.0
  0
ARC
  8
3
  6
CONTINUOUS
 62
3
 10
3.50346244231477
 20
2.19065580672026
 30
0.0
 40
0.157480315163469
 50
68.8939444244372
 51
149.999999935727
  0
ARC
  8
3
  6
CONTINUOUS
 62
3
 10
4.32874015749959
 20
4.3287401528576
 30
0.0
 40
2.13435038939963
 50
248.893944464121
 51
291.106055545155
  0
ARC
  8
3
  6
CONTINUOUS
 62
3
 10
5.15401787275735
 20
2.19065580699102
 30
0.0
 40
0.157480314937144
 50
29.9999999987966
 51
111.106055510086
  0
ARC
  8
3
  6
CONTINUOUS
 62
3
 10
5.45883504126035
 20
1.66269698456461
 30
0.0
 40
0.157480314716436
 50
292.97134433639
 51
30.0000000985914
  0
ARC
  8
3
  6
CONTINUOUS
 62
3
 10
4.32874015747825
 20
4.3287401474711
 30
0.0
 40
3.0531495970812
 50
247.028655689426
 51
292.971344321432
  0
ARC
  8
3
  6
CONTINUOUS
 62
3
 10
3.19864527404576
 20
1.66269698468164
 30
0.0
 40
0.157480314960631
 50
150.000000001129
 51
247.028655773619
  0
ARC
  8
3
  6
CONTINUOUS
 62
3
 10
2.8897436521407
 20
6.11249379932668
 30
0.0
 40
0.157480314959619
 50
308.893944497611
 51
29.9999999986116
  0
ARC
  8
3
  6
CONTINUOUS
 62
3
 10
4.32874015390603
 20
4.32874015954435
 30
0.0
 40
2.13435038985465
 50
128.89394445911
 51
171.106055540146
  0
ARC
  8
3
  6
CONTINUOUS
 62
3
 10
2.06446593687985
 20
4.68307086614002
 30
0.0
 40
0.157480314958883
 50
270.000000000742
 51
351.106055512031
  0
LINE
  8
3
  6
CONTINUOUS
 62
3
 10
2.06446593688189
 20
4.52559055118114
 30
0.0
 11
1.45483160055978
 21
4.52559055118464
 31
0.0
  0
ARC
  8
3
  6
CONTINUOUS
 62
3
 10
1.45483160053262
 20
4.68307086614251
 30
0.0
 40
0.157480314957868
 50
172.971344237389
 51
270.000000009879
  0
ARC
  8
3
  6
CONTINUOUS
 62
3
 10
4.32874014822797
 20
4.32874016280298
 30
0.0
 40
3.0531495964618
 50
127.02865568368
 51
172.971344315688
  0
ARC
  8
3
  6
CONTINUOUS
 62
3
 10
2.5849264839798
 20
6.64045262163825
 30
0.0
 40
0.157480314939352
 50
29.9999999976758
 51
127.028655770166
  0
ARC
  8
3
  6
CONTINUOUS
 62
3
 10
5.15401787275969
 20
6.46682450796802
 30
0.0
 40
0.157480314932173
 50
248.893944489567
 51
330.000000000856
  0
ARC
  8
3
  6
CONTINUOUS
 62
3
 10
4.32874015750562
 20
4.32874016160637
 30
0.0
 40
2.13435038986511
 50
68.8939444597493
 51
111.106055540711
  0
ARC
  8
3
  6
CONTINUOUS
 62
3
 10
3.50346244222065
 20
6.46682450798661
 30
0.0
 40
0.157480314960656
 50
210.000000000971
 51
291.106055512261
  0
LINE
  8
3
  6
CONTINUOUS
 62
3
 10
3.36708048887008
 20
6.38808435050397
 30
0.0
 11
3.06226332071255
 21
6.91604317278044
 31
0.0
  0
ARC
  8
3
  6
CONTINUOUS
 62
3
 10
3.19864527404807
 20
6.99478333028207
 30
0.0
 40
0.157480314957121
 50
112.971344237203
 51
210.000000009692
  0
ARC
  8
3
  6
CONTINUOUS
 62
3
 10
4.32874015746442
 20
4.32874016815169
 30
0.0
 40
3.05314959646459
 50
67.0286556837357
 51
112.971344315681
  0
ARC
  8
3
  6
CONTINUOUS
 62
3
 10
5.4588350409171
 20
6.9947833302724
 30
0.0
 40
0.15748031495186
 50
330.000000002821
 51
67.0286557650216
  0
ARC
  8
3
  6
CONTINUOUS
 62
3
 10
4.3287401577724
 20
4.32874015601358
 30
0.0
 40
1.85875984206126
 50
209.11172992379
 51
353.214278603615
  0
ARC
  8
3
  6
CONTINUOUS
 62
3
 10
4.32874015952616
 20
4.32874015951375
 30
0.0
 40
1.85875984073334
 50
353.214278490091
 51
96.442192537824
  0
ARC
  8
3
  6
CONTINUOUS
 62
3
 10
4.3287401550542
 20
4.32874015873159
 30
0.0
 40
1.8587598410088
 50
96.4421923981417
 51
209.111730037752
  0
ARC
  8
3
  6
CONTINUOUS
 62
3
 10
4.32874015813321
 20
4.32874016270704
 30
0.0
 40
3.32874015414937
 50
31.5548760269542
 51
133.544884749775
  0
ARC
  8
3
  6
CONTINUOUS
 62
3
 10
4.32874015549678
 20
4.32874015584102
 30
0.0
 40
3.3287401573098
 50
133.544884635464
 51
305.729157355853
  0
LINE
  8
9
  6
CONTINUOUS
 62
9
 10
6.36446795385758
 20
1.50985801286287
 30
0.0
 11
6.27257261125396
 21
1.62651395901148
 31
0.0
  0
LINE
  8
9
  6
CONTINUOUS
 62
9
 10
6.29983506266061
 20
1.58489880259821
 30
0.0
 11
6.27257261125396
 21
1.62651395901148
 31
0.0
  0
LINE
  8
9
  6
CONTINUOUS
 62
9
 10
6.06739434522647
 20
2.00710419597844
 30
0.0
 11
6.09425325010701
 21
1.86104953842628
 31
0.0
  0
LINE
  8
9
  6
CONTINUOUS
 62
9
 10
6.08955402180611
 20
1.91057710401733
 30
0.0
 11
6.09425325010701
 21
1.86104953842628
 31
0.0
  0
LINE
  8
9
  6
CONTINUOUS
 62
9
 10
5.35820390687879
 20
1.85523103690388
 30
0.0
 11
5.48345069926787
 21
1.93502204366722
 31
0.0
  0
LINE
  8
9
  6
CONTINUOUS
 62
9
 10
5.43932191032654
 20
1.91205005014094
 30
0.0
 11
5.48345069926787
 21
1.93502204366722
 31
0.0
  0
LINE
  8
9
  6
CONTINUOUS
 62
9
 10
2.83126125107933
 20
3.50226676347417
 30
0.0
 11
2.70479254051648
 21
3.42442699849101
 31
0.0
  0
LINE
  8
9
  6
CONTINUOUS
 62
9
 10
2.74927215239904
 20
3.44671211968827
 30
0.0
 11
2.70479254051648
 21
3.42442699849101
 31
0.0
  0
LINE
  8
9
  6
CONTINUOUS
 62
9
 10
6.00185259290566
 20
6.53623030034423
 30
0.0
 11
5.87012815787278
 21
6.60480170093756
 31
0.0
  0
LINE
  8
9
  6
CONTINUOUS
 62
9
 10
5.912086882308
 20
6.57807104543177
 30
0.0
 11
5.87012815787278
 21
6.60480170093756
 31
0.0
  0
LINE
  8
9
  6
CONTINUOUS
 62
9
 10
5.35172626424655
 20
6.79102967191074
 30
0.0
 11
5.48345069926697
 21
6.72245827129347
 31
0.0
  0
LINE
  8
9
  6
CONTINUOUS
 62
9
 10
5.44149197483661
 20
6.74918892680689
 30
0.0
 11
5.48345069926697
 21
6.72245827129347
 31
0.0
  0
LINE
  8
9
  6
CONTINUOUS
 62
9
 10
2.70782793992594
 20
6.44581687082889
 30
0.0
 11
2.83307473231474
 21
6.52560787759268
 31
0.0
  0
LINE
  8
9
  6
CONTINUOUS
 62
9
 10
2.78894594337349
 20
6.50263588406625
 30
0.0
 11
2.83307473231474
 21
6.52560787759268
 31
0.0
  0
LINE
  8
9
  6
CONTINUOUS
 62
9
 10
1.68484183316954
 20
3.98352735644585
 30
0.0
 11
1.67836419052664
 21
4.13188976377956
 31
0.0
  0
LINE
  8
9
  6
CONTINUOUS
 62
9
 10
1.6761941260209
 20
4.08218711475518
 30
0.0
 11
1.67836419052664
 21
4.13188976377956
 31
0.0
  0
LINE
  8
0
  6
CONTINUOUS
 62
0
 10
0.999999999974873
 20
7.65748031496908
 30
0.0
 11
1.68484183316954
 21
3.98352735644585
 31
0.0
  0
LINE
  8
0
  6
CONTINUOUS
 62
0
 10
1.6761941260209
 20
4.08218711475518
 30
0.0
 11
2.70782793992594
 21
6.44581687082889
 31
0.0
  0
LINE
  8
0
  6
CONTINUOUS
 62
0
 10
2.78894594337349
 20
6.50263588406625
 30
0.0
 11
5.35172626424655
 21
6.79102967191074
 31
0.0
  0
LINE
  8
0
  6
CONTINUOUS
 62
0
 10
5.44149197483661
 20
6.74918892680689
 30
0.0
 11
6.00185259290566
 21
6.53623030034423
 31
0.0
  0
LINE
  8
0
  6
CONTINUOUS
 62
0
 10
5.912086882308
 20
6.57807104543177
 30
0.0
 11
2.83126125107933
 21
3.50226676347417
 31
0.0
  0
LINE
  8
0
  6
CONTINUOUS
 62
0
 10
2.74927215239904
 20
3.44671211968827
 30
0.0
 11
5.35820390687879
 21
1.85523103690388
 31
0.0
  0
LINE
  8
0
  6
CONTINUOUS
 62
0
 10
5.43932191032654
 20
1.91205005014094
 30
0.0
 11
6.06739434522647
 21
2.00710419597844
 31
0.0
  0
LINE
  8
0
  6
CONTINUOUS
 62
0
 10
6.08955402180611
 20
1.91057710401733
 30
0.0
 11
6.36446795385758
 21
1.50985801286287
 31
0.0
  0
ARC
  8
3
  6
CONTINUOUS
 62
3
 10
4.32874016235755
 20
4.32874015646968
 30
0.0
 40
3.32874015381374
 50
305.72915725367
 51
31.5548761564912
  0
ARC
  8
3
  6
CONTINUOUS
 62
3
 10
6.07255383101298
 20
2.01702769328755
 30
0.0
 40
0.157480314906164
 50
277.920059050102
 51
307.028655778762
  0
ARC
  8
3
  6
CONTINUOUS
 62
3
 10
6.07255383098036
 20
2.0170276933168
 30
0.0
 40
0.157480314939633
 50
210.000000006273
 51
277.920059060392
  0
LINE
  8
3
  6
CONTINUOUS
 62
3
 10
5.29039982609055
 20
2.26939596445673
 30
0.0
 11
5.48345069926787
 21
1.93502204366722
 31
0.0
  0
LINE
  8
3
  6
CONTINUOUS
 62
3
 10
5.48345069926787
 20
1.93502204366722
 30
0.0
 11
5.59521699426526
 21
1.74143714215751
 31
0.0
  0
LINE
  8
3
  6
CONTINUOUS
 62
3
 10
5.6313547094685
 20
6.19123395680318
 30
0.0
 11
5.87012815787278
 21
6.60480170093756
 31
0.0
  0
LINE
  8
3
  6
CONTINUOUS
 62
3
 10
5.87012815787278
 20
6.60480170093756
 30
0.0
 11
5.93617187764418
 21
6.71919277910239
 31
0.0
  0
LINE
  8
3
  6
CONTINUOUS
 62
3
 10
5.59521699426526
 20
6.91604317280318
 30
0.0
 11
5.48345069926697
 21
6.72245827129347
 31
0.0
  0
LINE
  8
3
  6
CONTINUOUS
 62
3
 10
5.48345069926697
 20
6.72245827129347
 30
0.0
 11
5.2903998260881
 21
6.38808435050397
 31
0.0
  0
LINE
  8
3
  6
CONTINUOUS
 62
3
 10
2.72130843731645
 20
6.71919277910239
 30
0.0
 11
2.83307473231474
 21
6.52560787759268
 31
0.0
  0
LINE
  8
3
  6
CONTINUOUS
 62
3
 10
2.83307473231474
 20
6.52560787759268
 30
0.0
 11
3.02612560549361
 21
6.19123395680318
 31
0.0
  0
LINE
  8
3
  6
CONTINUOUS
 62
3
 10
1.4548316005315
 20
4.13188976377956
 30
0.0
 11
1.67836419052664
 21
4.13188976377956
 31
0.0
  0
LINE
  8
3
  6
CONTINUOUS
 62
3
 10
1.67836419052664
 20
4.13188976377956
 30
0.0
 11
2.06446593688189
 21
4.13188976377956
 31
0.0
  0
ENDSEC
  0
EOF
