  0
SECTION
  2
HEADER
  9
$ACADVER
  1
AC1003
  9
$EXTMIN
 10
1
 20
5.35196850393701
  9
$EXTMAX
 10
5.40121850393701
 20
0.950249999999999
  9
$INSBASE
 10
3.2006092519685
 20
3.1511092519685
999
Created with OMAX Layout for Windows. (http://www.omax.com) 2017-02-09
  0
ENDSEC
  0
SECTION
  2
TABLES
  0
TABLE
  2
LAYER
 70
    10
  0
LAYER
  2
0
 70
     0
 62
     7
  6
CONTINUOUS
  0
LAYER
  2
1
 70
     0
 62
     7
  6
CONTINUOUS
  0
LAYER
  2
2
 70
     0
 62
     7
  6
CONTINUOUS
  0
LAYER
  2
3
 70
     0
 62
     7
  6
CONTINUOUS
  0
LAYER
  2
4
 70
     0
 62
     7
  6
CONTINUOUS
  0
LAYER
  2
5
 70
     0
 62
     7
  6
CONTINUOUS
  0
LAYER
  2
6
 70
     0
 62
     7
  6
CONTINUOUS
  0
LAYER
  2
7
 70
     0
 62
     7
  6
CONTINUOUS
  0
LAYER
  2
8
 70
     0
 62
     7
  6
CONTINUOUS
  0
LAYER
  2
9
 70
     0
 62
     7
  6
CONTINUOUS
  0
LAYER
  2
10
 70
     0
 62
     7
  6
CONTINUOUS
  0
LAYER
  2
11
 70
     0
 62
     7
  6
CONTINUOUS
  0
LAYER
  2
12
 70
     0
 62
     7
  6
CONTINUOUS
  0
LAYER
  2
13
 70
     0
 62
     7
  6
CONTINUOUS
  0
LAYER
  2
14
 70
     0
 62
     7
  6
CONTINUOUS
  0
LAYER
  2
15
 70
     0
 62
     7
  6
CONTINUOUS
  0
LAYER
  2
16
 70
     0
 62
     7
  6
CONTINUOUS
  0
LAYER
  2
17
 70
     0
 62
     7
  6
CONTINUOUS
  0
LAYER
  2
18
 70
     0
 62
     7
  6
CONTINUOUS
  0
LAYER
  2
19
 70
     0
 62
     7
  6
CONTINUOUS
  0
LAYER
  2
20
 70
     0
 62
     7
  6
CONTINUOUS
  0
LAYER
  2
21
 70
     0
 62
     7
  6
CONTINUOUS
  0
LAYER
  2
22
 70
     0
 62
     7
  6
CONTINUOUS
  0
LAYER
  2
23
 70
     0
 62
     7
  6
CONTINUOUS
  0
LAYER
  2
24
 70
     0
 62
     7
  6
CONTINUOUS
  0
LAYER
  2
25
 70
     0
 62
     7
  6
CONTINUOUS
  0
LAYER
  2
26
 70
     0
 62
     7
  6
CONTINUOUS
  0
LAYER
  2
27
 70
     0
 62
     7
  6
CONTINUOUS
  0
LAYER
  2
28
 70
     0
 62
     7
  6
CONTINUOUS
  0
LAYER
  2
29
 70
     0
 62
     7
  6
CONTINUOUS
  0
LAYER
  2
30
 70
     0
 62
     7
  6
CONTINUOUS
  0
LAYER
  2
31
 70
     0
 62
     7
  6
CONTINUOUS
  0
ENDTAB
  0
ENDSEC
  0
SECTION
  2
ENTITIES
  0
LINE
  8
3
  6
CONTINUOUS
 62
3
 10
1
 20
1
 30
0.0
 11
1
 21
5.25196850393701
 31
0.0
  0
LINE
  8
3
  6
CONTINUOUS
 62
3
 10
5.25196850393701
 20
1
 30
0.0
 11
1
 21
1
 31
0.0
  0
LINE
  8
3
  6
CONTINUOUS
 62
3
 10
5.25196850393701
 20
5.25196850393701
 30
0.0
 11
5.25196850393701
 21
1
 31
0.0
  0
LINE
  8
3
  6
CONTINUOUS
 62
3
 10
1
 20
5.25196850393701
 30
0.0
 11
5.25196850393701
 21
5.25196850393701
 31
0.0
  0
LINE
  8
3
  6
CONTINUOUS
 62
3
 10
1.35433070866142
 20
4.58267716536317
 30
0.0
 11
1.39370078741572
 21
4.58267716535257
 31
0.0
  0
ARC
  8
3
  6
CONTINUOUS
 62
3
 10
1.39370078741483
 20
4.66141732281962
 30
0.0
 40
0.0787401574670558
 50
270.000000000644
 51
1.09342898398323E-8
  0
LINE
  8
3
  6
CONTINUOUS
 62
3
 10
1.47244094488189
 20
4.66141732283465
 30
0.0
 11
1.47244094489625
 21
4.77952755905512
 31
0.0
  0
ARC
  8
3
  6
CONTINUOUS
 62
3
 10
1.66929133856193
 20
4.77952755909023
 30
0.0
 40
0.196850393665681
 50
89.9999999939596
 51
180.000000010219
  0
LINE
  8
3
  6
CONTINUOUS
 62
3
 10
1.66929133858268
 20
4.97637795275591
 30
0.0
 11
2.73228346456693
 21
4.97637795275304
 31
0.0
  0
ARC
  8
3
  6
CONTINUOUS
 62
3
 10
2.73228346456454
 20
4.77952755904986
 30
0.0
 40
0.196850393703175
 50
1.53048375755508E-9
 51
89.9999999993057
  0
LINE
  8
3
  6
CONTINUOUS
 62
3
 10
2.92913385826772
 20
4.77952755905512
 30
0.0
 11
2.92913385826459
 21
4.58547511074008
 31
0.0
  0
ARC
  8
3
  6
CONTINUOUS
 62
3
 10
2.73228346456153
 20
4.58547511070119
 30
0.0
 40
0.196850393703065
 50
315.00000000103
 51
1.13202819559747E-8
  0
LINE
  8
3
  6
CONTINUOUS
 62
3
 10
2.87147771283071
 20
4.44628086243701
 30
0.0
 11
1.80568764152014
 21
3.38049079113222
 31
0.0
  0
ARC
  8
3
  6
CONTINUOUS
 62
3
 10
1.6664933932285
 20
3.51968503936852
 30
0.0
 40
0.196850393699225
 50
270.000000001099
 51
315.000000011389
  0
ARC
  8
3
  6
CONTINUOUS
 62
3
 10
1.47244094488001
 20
3.5196850393682
 30
0.0
 40
0.196850393698912
 50
179.999999999453
 51
270.000000000547
  0
LINE
  8
3
  6
CONTINUOUS
 62
3
 10
1.2755905511811
 20
3.51968503937008
 30
0.0
 11
1.27559055118994
 21
4.50393700787402
 31
0.0
  0
ARC
  8
3
  6
CONTINUOUS
 62
3
 10
1.35433070866319
 20
4.50393700788993
 30
0.0
 40
0.0787401574732442
 50
90.0000000012861
 51
180.000000011576
  0
LINE
  8
3
  6
CONTINUOUS
 62
3
 10
4.28320465680819
 20
2.98679000372606
 30
0.0
 11
3.26517850025654
 21
1.96876384718322
 31
0.0
  0
ARC
  8
3
  6
CONTINUOUS
 62
3
 10
3.12598425196776
 20
2.10795809539773
 30
0.0
 40
0.196850393681805
 50
224.99999999531
 51
315.000000015285
  0
LINE
  8
3
  6
CONTINUOUS
 62
3
 10
2.98679000370472
 20
1.96876384715748
 30
0.0
 11
1.96876384715951
 21
2.98679000370547
 31
0.0
  0
ARC
  8
3
  6
CONTINUOUS
 62
3
 10
2.10795809538513
 20
3.12598425196887
 30
0.0
 40
0.196850393671723
 50
134.999999992224
 51
225.000000007776
  0
LINE
  8
3
  6
CONTINUOUS
 62
3
 10
1.96876384715748
 20
3.26517850023228
 30
0.0
 11
2.98679000371359
 21
4.28320465677067
 31
0.0
  0
ARC
  8
3
  6
CONTINUOUS
 62
3
 10
3.12598425197736
 20
4.14401040854103
 30
0.0
 40
0.196850393674817
 50
44.9999999966202
 51
135.000000007027
  0
ARC
  8
3
  6
CONTINUOUS
 62
3
 10
4.1440104085704
 20
3.12598425197982
 30
0.0
 40
0.196850393654141
 50
314.99999999108
 51
45.0000000089202
  0
LINE
  8
3
  6
CONTINUOUS
 62
3
 10
4.5826771653561
 20
4.89763779528973
 30
0.0
 11
4.58267716535257
 21
4.85826771653543
 31
0.0
  0
ARC
  8
3
  6
CONTINUOUS
 62
3
 10
4.66141732282669
 20
4.85826771652925
 30
0.0
 40
0.0787401574741254
 50
179.9999999955
 51
270.00000000579
  0
LINE
  8
3
  6
CONTINUOUS
 62
3
 10
4.66141732283465
 20
4.77952755905512
 30
0.0
 11
4.77952755905512
 21
4.77952755905225
 31
0.0
  0
ARC
  8
3
  6
CONTINUOUS
 62
3
 10
4.77952755905273
 20
4.58267716534907
 30
0.0
 40
0.196850393703177
 50
1.53114531292883E-9
 51
89.9999999993053
  0
LINE
  8
3
  6
CONTINUOUS
 62
3
 10
4.97637795275591
 20
4.58267716535433
 30
0.0
 11
4.97637795275304
 21
3.51968503940543
 31
0.0
  0
ARC
  8
3
  6
CONTINUOUS
 62
3
 10
4.77952755907048
 20
3.51968503935185
 30
0.0
 40
0.196850393682561
 50
269.99999999553
 51
1.5594743892362E-8
  0
LINE
  8
3
  6
CONTINUOUS
 62
3
 10
4.77952755905512
 20
3.32283464566929
 30
0.0
 11
4.58547511074008
 21
3.32283464567242
 31
0.0
  0
LINE
  8
3
  6
CONTINUOUS
 62
3
 10
4.4462808624348
 20
3.38049079110409
 30
0.0
 11
3.38049079110722
 21
4.44628086244186
 31
0.0
  0
ARC
  8
3
  6
CONTINUOUS
 62
3
 10
3.51968503932584
 20
4.58547511069082
 30
0.0
 40
0.196850393656551
 50
179.999999995954
 51
225.000000006244
  0
LINE
  8
3
  6
CONTINUOUS
 62
3
 10
3.32283464566929
 20
4.58547511070472
 30
0.0
 11
3.32283464568365
 21
4.77952755905512
 31
0.0
  0
ARC
  8
3
  6
CONTINUOUS
 62
3
 10
3.51968503934933
 20
4.77952755909023
 30
0.0
 40
0.196850393665681
 50
89.9999999939594
 51
180.000000010219
  0
LINE
  8
3
  6
CONTINUOUS
 62
3
 10
3.51968503937008
 20
4.97637795275591
 30
0.0
 11
4.50393700787402
 21
4.97637795275414
 31
0.0
  0
ARC
  8
3
  6
CONTINUOUS
 62
3
 10
4.50393700788286
 20
4.89763779528089
 30
0.0
 40
0.0787401574732444
 50
6.43031907763052E-9
 51
90.0000000064311
  0
LINE
  8
3
  6
CONTINUOUS
 62
3
 10
4.89763779528973
 20
1.66929133858091
 30
0.0
 11
4.85826771653543
 21
1.66929133859151
 31
0.0
  0
ARC
  8
3
  6
CONTINUOUS
 62
3
 10
4.85826771653278
 20
1.59055118111385
 30
0.0
 40
0.0787401574776606
 50
89.9999999980723
 51
180.000000008362
  0
LINE
  8
3
  6
CONTINUOUS
 62
3
 10
4.77952755905512
 20
1.59055118110236
 30
0.0
 11
4.77952755905225
 21
1.47244094491724
 31
0.0
  0
ARC
  8
3
  6
CONTINUOUS
 62
3
 10
4.58267716536969
 20
1.47244094486366
 30
0.0
 40
0.196850393682561
 50
269.99999999553
 51
1.55948456701118E-8
  0
LINE
  8
3
  6
CONTINUOUS
 62
3
 10
4.58267716535433
 20
1.2755905511811
 30
0.0
 11
3.51968503940543
 21
1.27559055118397
 31
0.0
  0
ARC
  8
3
  6
CONTINUOUS
 62
3
 10
3.51968503938444
 20
1.47244094489912
 30
0.0
 40
0.196850393715151
 50
180.000000005016
 51
270.00000000611
  0
LINE
  8
3
  6
CONTINUOUS
 62
3
 10
3.32283464566929
 20
1.47244094488189
 30
0.0
 11
3.32283464568492
 21
1.66649339323228
 31
0.0
  0
ARC
  8
3
  6
CONTINUOUS
 62
3
 10
3.51968503933906
 20
1.66649339326859
 30
0.0
 40
0.196850393654142
 50
135.000000000276
 51
180.000000010566
  0
ARC
  8
3
  6
CONTINUOUS
 62
3
 10
4.58547511068705
 20
2.73228346460961
 30
0.0
 40
0.196850393658104
 50
89.9999999948566
 51
135.000000005146
  0
LINE
  8
3
  6
CONTINUOUS
 62
3
 10
4.58547511070472
 20
2.92913385826772
 30
0.0
 11
4.77952755905512
 21
2.92913385826485
 31
0.0
  0
ARC
  8
3
  6
CONTINUOUS
 62
3
 10
4.77952755905273
 20
2.73228346456167
 30
0.0
 40
0.196850393703177
 50
1.53119620180373E-9
 51
89.9999999993052
  0
LINE
  8
3
  6
CONTINUOUS
 62
3
 10
4.97637795275591
 20
2.73228346456693
 30
0.0
 11
4.97637795275414
 21
1.74803149607713
 31
0.0
  0
ARC
  8
3
  6
CONTINUOUS
 62
3
 10
4.89763779528089
 20
1.74803149605415
 30
0.0
 40
0.0787401574732444
 50
270.000000006429
 51
1.67193880277275E-8
  0
LINE
  8
3
  6
CONTINUOUS
 62
3
 10
1.66929133858091
 20
1.35433070866142
 30
0.0
 11
1.66929133858444
 21
1.39370078741572
 31
0.0
  0
ARC
  8
3
  6
CONTINUOUS
 62
3
 10
1.59055118111032
 20
1.39370078740776
 30
0.0
 40
0.0787401574741265
 50
5.78937369822199E-9
 51
90.0000000057893
  0
LINE
  8
3
  6
CONTINUOUS
 62
3
 10
1.59055118110236
 20
1.47244094488189
 30
0.0
 11
1.47244094491724
 21
1.47244094488476
 31
0.0
  0
ARC
  8
3
  6
CONTINUOUS
 62
3
 10
1.47244094489625
 20
1.66929133859992
 30
0.0
 40
0.196850393715151
 50
180.000000005016
 51
270.00000000611
  0
LINE
  8
3
  6
CONTINUOUS
 62
3
 10
1.2755905511811
 20
1.66929133858268
 30
0.0
 11
1.27559055119546
 21
2.73228346456693
 31
0.0
  0
ARC
  8
3
  6
CONTINUOUS
 62
3
 10
1.47244094486114
 20
2.73228346460204
 30
0.0
 40
0.196850393665682
 50
89.9999999939595
 51
180.000000010219
  0
LINE
  8
3
  6
CONTINUOUS
 62
3
 10
1.47244094488189
 20
2.92913385826772
 30
0.0
 11
1.66649339323228
 21
2.92913385826459
 31
0.0
  0
ARC
  8
3
  6
CONTINUOUS
 62
3
 10
1.66649339323582
 20
2.73228346456153
 30
0.0
 40
0.196850393703067
 50
45.0000000010306
 51
90.0000000010306
  0
LINE
  8
3
  6
CONTINUOUS
 62
3
 10
1.8056876415
 20
2.87147771283071
 30
0.0
 11
2.87147771280479
 21
1.80568764152014
 31
0.0
  0
ARC
  8
3
  6
CONTINUOUS
 62
3
 10
2.73228346456849
 20
1.6664933932285
 30
0.0
 40
0.196850393699227
 50
1.09955676487295E-9
 51
45.0000000113894
  0
ARC
  8
3
  6
CONTINUOUS
 62
3
 10
2.7322834646014
 20
1.47244094484742
 30
0.0
 40
0.196850393666323
 50
269.999999989968
 51
1.00323354210441E-8
  0
LINE
  8
3
  6
CONTINUOUS
 62
3
 10
2.73228346456693
 20
1.2755905511811
 30
0.0
 11
1.74803149607713
 21
1.27559055118287
 31
0.0
  0
ARC
  8
3
  6
CONTINUOUS
 62
3
 10
1.74803149606122
 20
1.35433070866319
 30
0.0
 40
0.0787401574803146
 50
180.000000001286
 51
270.000000011576
  0
LINE
  8
9
  6
CONTINUOUS
 62
9
 10
5.40121850393701
 20
1.0000000000201
 30
0.0
 11
5.25196850393701
 21
1
 31
0.0
  0
LINE
  8
9
  6
CONTINUOUS
 62
9
 10
5.25196850394594
 20
0.950249999999999
 30
0.0
 11
5.25196850393701
 21
1
 31
0.0
  0
LINE
  8
9
  6
CONTINUOUS
 62
9
 10
4.55699196099953
 20
3.47991375753373
 30
0.0
 11
4.49305944873385
 21
3.34587645810011
 31
0.0
  0
LINE
  8
9
  6
CONTINUOUS
 62
9
 10
4.51830948228241
 20
3.38874250883721
 30
0.0
 11
4.49305944873385
 21
3.34587645810011
 31
0.0
  0
LINE
  8
9
  6
CONTINUOUS
 62
9
 10
3.65140743988163
 20
3.6871595885313
 30
0.0
 11
3.75173511917092
 21
3.79664803784212
 31
0.0
  0
LINE
  8
9
  6
CONTINUOUS
 62
9
 10
3.71505557166621
 20
3.7630374250115
 30
0.0
 11
3.75173511917092
 21
3.79664803784212
 31
0.0
  0
LINE
  8
9
  6
CONTINUOUS
 62
9
 10
4.06728219575854
 20
2.28266291755466
 30
0.0
 11
3.95779374641187
 21
2.38299059680483
 31
0.0
  0
LINE
  8
9
  6
CONTINUOUS
 62
9
 10
3.99140435925559
 20
2.34631104931213
 30
0.0
 11
3.95779374641187
 21
2.38299059680483
 31
0.0
  0
LINE
  8
9
  6
CONTINUOUS
 62
9
 10
2.78077145093227
 20
1.6293758903635
 30
0.0
 11
2.92913385826772
 21
1.63585353296643
 31
0.0
  0
LINE
  8
9
  6
CONTINUOUS
 62
9
 10
2.87943120924392
 20
1.63802359748556
 30
0.0
 11
2.92913385826772
 21
1.63585353296643
 31
0.0
  0
LINE
  8
9
  6
CONTINUOUS
 62
9
 10
1.55788288306985
 20
3.47119705300445
 30
0.0
 11
1.56436052567944
 21
3.32283464566929
 31
0.0
  0
LINE
  8
9
  6
CONTINUOUS
 62
9
 10
1.56653059019634
 20
3.37253729469318
 30
0.0
 11
1.56436052567944
 21
3.32283464566929
 31
0.0
  0
LINE
  8
0
  6
CONTINUOUS
 62
0
 10
1
 20
5.35196850393701
 30
0.0
 11
1.55788288306985
 21
3.47119705300445
 31
0.0
  0
LINE
  8
0
  6
CONTINUOUS
 62
0
 10
1.56653059019634
 20
3.37253729469318
 30
0.0
 11
2.78077145093227
 21
1.6293758903635
 31
0.0
  0
LINE
  8
0
  6
CONTINUOUS
 62
0
 10
2.87943120924392
 20
1.63802359748556
 30
0.0
 11
4.06728219575854
 21
2.28266291755466
 31
0.0
  0
LINE
  8
0
  6
CONTINUOUS
 62
0
 10
3.99140435925559
 20
2.34631104931213
 30
0.0
 11
3.65140743988163
 21
3.6871595885313
 31
0.0
  0
LINE
  8
0
  6
CONTINUOUS
 62
0
 10
3.71505557166621
 20
3.7630374250115
 30
0.0
 11
4.55699196099953
 21
3.47991375753373
 31
0.0
  0
LINE
  8
0
  6
CONTINUOUS
 62
0
 10
4.51830948228241
 20
3.38874250883721
 30
0.0
 11
5.40121850393701
 21
1.0000000000201
 31
0.0
  0
ARC
  8
3
  6
CONTINUOUS
 62
3
 10
4.58547511069742
 20
3.51968503937704
 30
0.0
 40
0.196850393704627
 50
242.000000001305
 51
270.000000012417
  0
ARC
  8
3
  6
CONTINUOUS
 62
3
 10
4.58547511062628
 20
3.51968503928091
 30
0.0
 40
0.196850393586352
 50
224.999999996982
 51
242.00000000645
  0
LINE
  8
3
  6
CONTINUOUS
 62
3
 10
3.26517850023228
 20
4.28320465677953
 30
0.0
 11
3.75173511917092
 21
3.79664803784212
 31
0.0
  0
LINE
  8
3
  6
CONTINUOUS
 62
3
 10
3.75173511917092
 20
3.79664803784212
 30
0.0
 11
4.28320465678081
 21
3.26517850023357
 31
0.0
  0
LINE
  8
3
  6
CONTINUOUS
 62
3
 10
3.3804907911063
 20
1.8056876415
 30
0.0
 11
3.95779374641187
 21
2.38299059680483
 31
0.0
  0
LINE
  8
3
  6
CONTINUOUS
 62
3
 10
3.95779374641187
 20
2.38299059680483
 30
0.0
 11
4.44628086243966
 21
2.871477712832
 31
0.0
  0
LINE
  8
3
  6
CONTINUOUS
 62
3
 10
2.92913385826772
 20
1.66649339323228
 30
0.0
 11
2.92913385826772
 21
1.63585353296643
 31
0.0
  0
LINE
  8
3
  6
CONTINUOUS
 62
3
 10
2.92913385826772
 20
1.63585353296643
 30
0.0
 11
2.92913385826772
 21
1.47244094488189
 31
0.0
  0
LINE
  8
3
  6
CONTINUOUS
 62
3
 10
1.66649339323228
 20
3.32283464566929
 30
0.0
 11
1.56436052567944
 21
3.32283464566929
 31
0.0
  0
LINE
  8
3
  6
CONTINUOUS
 62
3
 10
1.56436052567944
 20
3.32283464566929
 30
0.0
 11
1.47244094488189
 21
3.32283464566929
 31
0.0
  0
ENDSEC
  0
EOF
