  0
SECTION
  2
HEADER
  9
$ACADVER
  1
AC1003
  9
$EXTMIN
 10
0.999999998904435
 20
7.65748031667667
  9
$EXTMAX
 10
7.65748031710182
 20
0.999999998732044
  9
$INSBASE
 10
4.32874015800313
 20
4.32874015770436
999
Created with OMAX Layout for Windows. (http://www.omax.com) 2017-02-09
  0
ENDSEC
  0
SECTION
  2
TABLES
  0
TABLE
  2
LAYER
 70
    10
  0
LAYER
  2
0
 70
     0
 62
     7
  6
CONTINUOUS
  0
LAYER
  2
1
 70
     0
 62
     7
  6
CONTINUOUS
  0
LAYER
  2
2
 70
     0
 62
     7
  6
CONTINUOUS
  0
LAYER
  2
3
 70
     0
 62
     7
  6
CONTINUOUS
  0
LAYER
  2
4
 70
     0
 62
     7
  6
CONTINUOUS
  0
LAYER
  2
5
 70
     0
 62
     7
  6
CONTINUOUS
  0
LAYER
  2
6
 70
     0
 62
     7
  6
CONTINUOUS
  0
LAYER
  2
7
 70
     0
 62
     7
  6
CONTINUOUS
  0
LAYER
  2
8
 70
     0
 62
     7
  6
CONTINUOUS
  0
LAYER
  2
9
 70
     0
 62
     7
  6
CONTINUOUS
  0
LAYER
  2
10
 70
     0
 62
     7
  6
CONTINUOUS
  0
LAYER
  2
11
 70
     0
 62
     7
  6
CONTINUOUS
  0
LAYER
  2
12
 70
     0
 62
     7
  6
CONTINUOUS
  0
LAYER
  2
13
 70
     0
 62
     7
  6
CONTINUOUS
  0
LAYER
  2
14
 70
     0
 62
     7
  6
CONTINUOUS
  0
LAYER
  2
15
 70
     0
 62
     7
  6
CONTINUOUS
  0
LAYER
  2
16
 70
     0
 62
     7
  6
CONTINUOUS
  0
LAYER
  2
17
 70
     0
 62
     7
  6
CONTINUOUS
  0
LAYER
  2
18
 70
     0
 62
     7
  6
CONTINUOUS
  0
LAYER
  2
19
 70
     0
 62
     7
  6
CONTINUOUS
  0
LAYER
  2
20
 70
     0
 62
     7
  6
CONTINUOUS
  0
LAYER
  2
21
 70
     0
 62
     7
  6
CONTINUOUS
  0
LAYER
  2
22
 70
     0
 62
     7
  6
CONTINUOUS
  0
LAYER
  2
23
 70
     0
 62
     7
  6
CONTINUOUS
  0
LAYER
  2
24
 70
     0
 62
     7
  6
CONTINUOUS
  0
LAYER
  2
25
 70
     0
 62
     7
  6
CONTINUOUS
  0
LAYER
  2
26
 70
     0
 62
     7
  6
CONTINUOUS
  0
LAYER
  2
27
 70
     0
 62
     7
  6
CONTINUOUS
  0
LAYER
  2
28
 70
     0
 62
     7
  6
CONTINUOUS
  0
LAYER
  2
29
 70
     0
 62
     7
  6
CONTINUOUS
  0
LAYER
  2
30
 70
     0
 62
     7
  6
CONTINUOUS
  0
LAYER
  2
31
 70
     0
 62
     7
  6
CONTINUOUS
  0
ENDTAB
  0
ENDSEC
  0
SECTION
  2
ENTITIES
  0
ARC
  8
3
  6
CONTINUOUS
 62
3
 10
4.32874015849468
 20
4.32874015697126
 30
0.0
 40
1.29921259832447
 50
249.086623734406
 51
59.880027586448
  0
ARC
  8
3
  6
CONTINUOUS
 62
3
 10
4.3287401573968
 20
4.32874015865173
 30
0.0
 40
1.29921259742183
 50
59.8800275073804
 51
127.582609437414
  0
ARC
  8
3
  6
CONTINUOUS
 62
3
 10
4.32874015647362
 20
4.3287401573115
 30
0.0
 40
1.29921259792086
 50
127.582609369102
 51
249.08662382302
  0
ARC
  8
3
  6
CONTINUOUS
 62
3
 10
5.3049992361691
 20
2.89775301137276
 30
0.0
 40
0.157480314791917
 50
124.302891744414
 51
202.500000054114
  0
ARC
  8
3
  6
CONTINUOUS
 62
3
 10
4.32874015906757
 20
4.32874015587793
 30
0.0
 40
1.57480314739382
 50
304.302891664771
 51
325.69710832472
  0
ARC
  8
3
  6
CONTINUOUS
 62
3
 10
5.75972730362758
 20
3.35248107858143
 30
0.0
 40
0.157480314947104
 50
67.4999999933254
 51
145.697108313315
  0
LINE
  8
3
  6
CONTINUOUS
 62
3
 10
5.81999241109842
 20
3.49797391832747
 30
0.0
 11
6.90855406723475
 21
3.04707691688623
 31
0.0
  0
ARC
  8
3
  6
CONTINUOUS
 62
3
 10
6.84828895944326
 20
2.90158407699666
 30
0.0
 40
0.157480315202416
 50
330.471344133036
 51
67.4999999055258
  0
ARC
  8
3
  6
CONTINUOUS
 62
3
 10
4.32874016386272
 20
4.32874015112107
 30
0.0
 40
3.05314959763466
 50
299.528655716078
 51
330.471344272007
  0
ARC
  8
3
  6
CONTINUOUS
 62
3
 10
5.75589623781621
 20
1.80919135513506
 30
0.0
 40
0.157480314933865
 50
202.499999990275
 51
299.528655762765
  0
LINE
  8
3
  6
CONTINUOUS
 62
3
 10
6.90855406720057
 20
5.61040339804507
 30
0.0
 11
5.81999241107335
 21
5.15950639658972
 31
0.0
  0
ARC
  8
3
  6
CONTINUOUS
 62
3
 10
5.75972730361751
 20
5.30499923632281
 30
0.0
 40
0.157480314929403
 50
214.302891683447
 51
292.500000003437
  0
ARC
  8
3
  6
CONTINUOUS
 62
3
 10
4.32874015952225
 20
4.32874015955982
 30
0.0
 40
1.57480314672693
 50
34.3028916690985
 51
55.6971083290484
  0
ARC
  8
3
  6
CONTINUOUS
 62
3
 10
5.30499923635707
 20
5.75972730361912
 30
0.0
 40
0.157480314940183
 50
157.499999996424
 51
235.697108306124
  0
LINE
  8
3
  6
CONTINUOUS
 62
3
 10
5.15950639661417
 20
5.81999241107944
 30
0.0
 11
5.61040339805543
 21
6.90855406721577
 31
0.0
  0
ARC
  8
3
  6
CONTINUOUS
 62
3
 10
5.75589623782592
 20
6.84828895977033
 30
0.0
 40
0.157480314959975
 50
60.4713442327795
 51
157.500000005269
  0
ARC
  8
3
  6
CONTINUOUS
 62
3
 10
4.32874016315004
 20
4.32874016313591
 30
0.0
 40
3.053149598581
 50
29.5286557219643
 51
60.4713442778939
  0
ARC
  8
3
  6
CONTINUOUS
 62
3
 10
6.03092028700529
 20
4.00719885740432
 30
0.0
 40
0.157480314791628
 50
169.302891743369
 51
247.500000053069
  0
ARC
  8
3
  6
CONTINUOUS
 62
3
 10
4.32874016000421
 20
4.32874015733677
 30
0.0
 40
1.57480314709319
 50
349.302891667418
 51
10.697108332581
  0
ARC
  8
3
  6
CONTINUOUS
 62
3
 10
6.03092028718118
 20
4.6502814574191
 30
0.0
 40
0.157480314948073
 50
112.499999991685
 51
190.697108301385
  0
LINE
  8
3
  6
CONTINUOUS
 62
3
 10
5.97065517974803
 20
4.7957742971818
 30
0.0
 11
7.05921683587549
 21
5.24667129864213
 31
0.0
  0
ARC
  8
3
  6
CONTINUOUS
 62
3
 10
7.11948194334722
 20
5.10117845888116
 30
0.0
 40
0.157480314961232
 50
15.4713442324046
 51
112.500000004894
  0
ARC
  8
3
  6
CONTINUOUS
 62
3
 10
4.32874016596893
 20
4.32874015744642
 30
0.0
 40
3.05314959812687
 50
344.528655719388
 51
15.4713442806108
  0
ARC
  8
3
  6
CONTINUOUS
 62
3
 10
7.11948194336145
 20
3.55630185602498
 30
0.0
 40
0.157480314940887
 50
247.499999988017
 51
344.528655760506
  0
ARC
  8
3
  6
CONTINUOUS
 62
3
 10
2.62656002777781
 20
4.65028145742235
 30
0.0
 40
0.157480314948255
 50
349.302891686769
 51
67.5000000067603
  0
ARC
  8
3
  6
CONTINUOUS
 62
3
 10
4.32874015521723
 20
4.32874015746083
 30
0.0
 40
1.57480314737268
 50
169.302891674999
 51
190.697108325
  0
ARC
  8
3
  6
CONTINUOUS
 62
3
 10
2.62656002777945
 20
4.00719885750357
 30
0.0
 40
0.157480314948073
 50
292.499999991683
 51
10.6971083116739
  0
LINE
  8
3
  6
CONTINUOUS
 62
3
 10
2.6868251352126
 20
3.86170601774086
 30
0.0
 11
1.59826347905365
 21
3.41080901628268
 31
0.0
  0
ARC
  8
3
  6
CONTINUOUS
 62
3
 10
1.53799837176816
 20
3.55630185635222
 30
0.0
 40
0.157480315175048
 50
195.471344126838
 51
292.499999899329
  0
ARC
  8
3
  6
CONTINUOUS
 62
3
 10
4.32874014949424
 20
4.32874015772929
 30
0.0
 40
3.05314959854369
 50
164.528655727012
 51
195.471344272988
  0
ARC
  8
3
  6
CONTINUOUS
 62
3
 10
1.53799837160746
 20
5.10117845888073
 30
0.0
 40
0.157480314953391
 50
67.4999999931622
 51
164.528655765652
  0
ARC
  8
3
  6
CONTINUOUS
 62
3
 10
4.00719885740339
 20
2.62656002795107
 30
0.0
 40
0.157480314767601
 50
79.3028917352495
 51
157.50000005524
  0
ARC
  8
3
  6
CONTINUOUS
 62
3
 10
4.32874015743911
 20
4.32874015522742
 30
0.0
 40
1.57480314740688
 50
259.302891666397
 51
280.69710832631
  0
ARC
  8
3
  6
CONTINUOUS
 62
3
 10
4.65028145743809
 20
2.62656002776046
 30
0.0
 40
0.157480314948075
 50
22.4999999916853
 51
100.697108311676
  0
LINE
  8
3
  6
CONTINUOUS
 62
3
 10
4.79577429720079
 20
2.68682513519361
 30
0.0
 11
5.24667129866111
 21
1.59826347906616
 31
0.0
  0
ARC
  8
3
  6
CONTINUOUS
 62
3
 10
5.10117845857177
 20
1.53799837175558
 30
0.0
 40
0.157480315202939
 50
285.471344132517
 51
22.4999999050081
  0
ARC
  8
3
  6
CONTINUOUS
 62
3
 10
4.32874015750854
 20
4.32874014847088
 30
0.0
 40
3.05314959764068
 50
254.528655716096
 51
285.471344272005
  0
ARC
  8
3
  6
CONTINUOUS
 62
3
 10
3.55630185605682
 20
1.53799837159689
 30
0.0
 40
0.157480314946371
 50
157.499999995419
 51
254.528655757619
  0
LINE
  8
3
  6
CONTINUOUS
 62
3
 10
1.74892624773393
 20
3.04707691686677
 30
0.0
 11
2.83748790385585
 21
3.4979739183349
 31
0.0
  0
ARC
  8
3
  6
CONTINUOUS
 62
3
 10
2.89775301138018
 20
3.35248107879937
 30
0.0
 40
0.157480314773085
 50
34.3028917339719
 51
112.500000053962
  0
ARC
  8
3
  6
CONTINUOUS
 62
3
 10
4.32874015585564
 20
4.32874015588338
 30
0.0
 40
1.57480314737823
 50
214.302891665898
 51
235.697108326152
  0
ARC
  8
3
  6
CONTINUOUS
 62
3
 10
3.35248107860042
 20
2.89775301131407
 30
0.0
 40
0.157480314947104
 50
337.499999993325
 51
55.6971083133148
  0
LINE
  8
3
  6
CONTINUOUS
 62
3
 10
3.49797391834646
 20
2.83748790384322
 30
0.0
 11
3.04707691689438
 21
1.74892624768076
 31
0.0
  0
ARC
  8
3
  6
CONTINUOUS
 62
3
 10
4.32874015175618
 20
4.32874015179642
 30
0.0
 40
3.05314959853841
 50
209.528655722095
 51
240.471344278341
  0
ARC
  8
3
  6
CONTINUOUS
 62
3
 10
1.80919135516655
 20
2.9015840771038
 30
0.0
 40
0.157480314948122
 50
112.499999991468
 51
209.528655753668
  0
LINE
  8
3
  6
CONTINUOUS
 62
3
 10
3.04707691688575
 20
6.90855406720772
 30
0.0
 11
3.49797391835389
 21
5.81999241108579
 31
0.0
  0
ARC
  8
3
  6
CONTINUOUS
 62
3
 10
3.35248107860048
 20
5.75972730361545
 30
0.0
 40
0.157480314953726
 50
304.302891685492
 51
22.5000000054829
  0
ARC
  8
3
  6
CONTINUOUS
 62
3
 10
4.3287401554082
 20
4.32874015952966
 30
0.0
 40
1.57480314671999
 50
124.302891670432
 51
145.697108330382
  0
ARC
  8
3
  6
CONTINUOUS
 62
3
 10
2.89775301133946
 20
5.30499923631975
 30
0.0
 40
0.157480314929707
 50
247.499999988176
 51
325.697108308166
  0
LINE
  8
3
  6
CONTINUOUS
 62
3
 10
2.8374879038622
 20
5.15950639659519
 30
0.0
 11
1.74892624770512
 21
5.61040339806023
 31
0.0
  0
ARC
  8
3
  6
CONTINUOUS
 62
3
 10
1.80919135516826
 20
5.7558962378158
 30
0.0
 40
0.157480314952963
 50
150.471344235039
 51
247.49999999724
  0
ARC
  8
3
  6
CONTINUOUS
 62
3
 10
4.32874015180573
 20
4.32874016313103
 30
0.0
 40
3.05314959858102
 50
119.528655721964
 51
150.471344277894
  0
LINE
  8
3
  6
CONTINUOUS
 62
3
 10
5.24667129863083
 20
7.05921683583843
 30
0.0
 11
4.79577429720134
 21
5.97065517969657
 31
0.0
  0
ARC
  8
3
  6
CONTINUOUS
 62
3
 10
4.65028145745923
 20
6.03092028714802
 30
0.0
 40
0.157480314936046
 50
259.302891679304
 51
337.499999999294
  0
ARC
  8
3
  6
CONTINUOUS
 62
3
 10
4.32874015744848
 20
4.32874016038366
 30
0.0
 40
1.57480314673071
 50
79.3028916694266
 51
100.697108329376
  0
ARC
  8
3
  6
CONTINUOUS
 62
3
 10
4.00719885750222
 20
6.03092028714769
 30
0.0
 40
0.157480314923752
 50
202.499999989639
 51
280.697108309629
  0
LINE
  8
3
  6
CONTINUOUS
 62
3
 10
3.86170601775984
 20
5.97065517972904
 30
0.0
 11
3.4108090162887
 21
7.05921683588263
 31
0.0
  0
ARC
  8
3
  6
CONTINUOUS
 62
3
 10
3.55630185605993
 20
7.1194819433276
 30
0.0
 40
0.157480314960481
 50
105.471344232269
 51
202.49999999447
  0
ARC
  8
3
  6
CONTINUOUS
 62
3
 10
4.32874015747844
 20
4.32874016547906
 30
0.0
 40
3.05314959858517
 50
74.528655721973
 51
105.471344277903
  0
ARC
  8
3
  6
CONTINUOUS
 62
3
 10
4.32874015981429
 20
4.32874015601958
 30
0.0
 40
3.32874015728753
 50
242.414984313171
 51
54.6900205686953
  0
ARC
  8
3
  6
CONTINUOUS
 62
3
 10
4.32874015609961
 20
4.32874016266481
 30
0.0
 40
3.32874015401186
 50
54.6900204504077
 51
155.02804810606
  0
ARC
  8
3
  6
CONTINUOUS
 62
3
 10
4.32874015279755
 20
4.32874015585572
 30
0.0
 40
3.32874015389311
 50
155.028047975821
 51
242.414984418911
  0
LINE
  8
9
  6
CONTINUOUS
 62
9
 10
2.72435954901401
 20
1.24389865922534
 30
0.0
 11
2.78731958146779
 21
1.37839549218985
 31
0.0
  0
LINE
  8
9
  6
CONTINUOUS
 62
9
 10
2.76238067966007
 20
1.33534768531627
 30
0.0
 11
2.78731958146779
 21
1.37839549218985
 31
0.0
  0
LINE
  8
9
  6
CONTINUOUS
 62
9
 10
2.89666205317351
 20
1.79914796068362
 30
0.0
 11
2.92698686068996
 21
1.65377337620217
 31
0.0
  0
LINE
  8
9
  6
CONTINUOUS
 62
9
 10
2.92111108763073
 20
1.703175175673
 30
0.0
 11
2.92698686068996
 21
1.65377337620217
 31
0.0
  0
LINE
  8
9
  6
CONTINUOUS
 62
9
 10
3.59866728734424
 20
1.6641038111857
 30
0.0
 11
3.45911940932162
 21
1.71489508507648
 31
0.0
  0
LINE
  8
9
  6
CONTINUOUS
 62
9
 10
3.50420822172202
 20
1.69386982654485
 30
0.0
 11
3.45911940932162
 21
1.71489508507648
 31
0.0
  0
LINE
  8
9
  6
CONTINUOUS
 62
9
 10
3.91188627239205
 20
3.25601886995451
 30
0.0
 11
3.86497831102118
 21
3.11511817114826
 31
0.0
  0
LINE
  8
9
  6
CONTINUOUS
 62
9
 10
3.88474707734404
 20
3.16077184983982
 30
0.0
 11
3.86497831102118
 21
3.11511817114826
 31
0.0
  0
LINE
  8
9
  6
CONTINUOUS
 62
9
 10
5.70070897616916
 20
1.9185989499045
 30
0.0
 11
5.56611887113714
 21
1.85583855322368
 31
0.0
  0
LINE
  8
9
  6
CONTINUOUS
 62
9
 10
5.61286857902198
 20
1.87285405535211
 30
0.0
 11
5.56611887113714
 21
1.85583855322368
 31
0.0
  0
LINE
  8
9
  6
CONTINUOUS
 62
9
 10
6.5560079811771
 20
3.77983126113078
 30
0.0
 11
6.50521670731139
 21
3.64028338309904
 31
0.0
  0
LINE
  8
9
  6
CONTINUOUS
 62
9
 10
6.52624196583491
 20
3.68537219550321
 30
0.0
 11
6.50521670731139
 21
3.64028338309904
 31
0.0
  0
LINE
  8
9
  6
CONTINUOUS
 62
9
 10
6.85101537879152
 20
5.74504899244935
 30
0.0
 11
6.96803793071487
 21
5.65362095459766
 31
0.0
  0
LINE
  8
9
  6
CONTINUOUS
 62
9
 10
6.93165308406946
 20
5.68755037302165
 30
0.0
 11
6.96803793071487
 21
5.65362095459766
 31
0.0
  0
LINE
  8
9
  6
CONTINUOUS
 62
9
 10
5.110035025872
 20
7.11265132740121
 30
0.0
 11
5.25853736222351
 21
7.11329929515201
 31
0.0
  0
LINE
  8
9
  6
CONTINUOUS
 62
9
 10
5.20895822847535
 20
7.1174190034891
 30
0.0
 11
5.25853736222351
 21
7.11329929515201
 31
0.0
  0
LINE
  8
9
  6
CONTINUOUS
 62
9
 10
2.91269649475364
 20
6.84955792270204
 30
0.0
 11
3.01878797332758
 21
6.95347116506343
 31
0.0
  0
LINE
  8
9
  6
CONTINUOUS
 62
9
 10
2.98034763688297
 20
6.92188947679277
 30
0.0
 11
3.01878797332758
 21
6.95347116506343
 31
0.0
  0
LINE
  8
9
  6
CONTINUOUS
 62
9
 10
2.10147233375847
 20
4.87764905380102
 30
0.0
 11
2.15226360764925
 21
5.01719693182363
 31
0.0
  0
LINE
  8
9
  6
CONTINUOUS
 62
9
 10
2.13123834911762
 20
4.97210811942323
 30
0.0
 11
2.15226360764925
 21
5.01719693182363
 31
0.0
  0
LINE
  8
0
  6
CONTINUOUS
 62
0
 10
0.999999999974873
 20
7.65748031496094
 30
0.0
 11
2.10147233375847
 21
4.87764905380102
 31
0.0
  0
LINE
  8
0
  6
CONTINUOUS
 62
0
 10
2.13123834911762
 20
4.97210811942323
 30
0.0
 11
2.91269649475364
 21
6.84955792270204
 31
0.0
  0
LINE
  8
0
  6
CONTINUOUS
 62
0
 10
2.98034763688297
 20
6.92188947679277
 30
0.0
 11
5.110035025872
 21
7.11265132740121
 31
0.0
  0
LINE
  8
0
  6
CONTINUOUS
 62
0
 10
5.20895822847535
 20
7.1174190034891
 30
0.0
 11
6.85101537879152
 21
5.74504899244935
 31
0.0
  0
LINE
  8
0
  6
CONTINUOUS
 62
0
 10
6.93165308406946
 20
5.68755037302165
 30
0.0
 11
6.5560079811771
 21
3.77983126113078
 31
0.0
  0
LINE
  8
0
  6
CONTINUOUS
 62
0
 10
6.52624196583491
 20
3.68537219550321
 30
0.0
 11
5.70070897616916
 21
1.9185989499045
 31
0.0
  0
LINE
  8
0
  6
CONTINUOUS
 62
0
 10
5.61286857902198
 20
1.87285405535211
 30
0.0
 11
3.91188627239205
 21
3.25601886995451
 31
0.0
  0
LINE
  8
0
  6
CONTINUOUS
 62
0
 10
3.88474707734404
 20
3.16077184983982
 30
0.0
 11
3.59866728734424
 21
1.6641038111857
 31
0.0
  0
LINE
  8
0
  6
CONTINUOUS
 62
0
 10
3.50420822172202
 20
1.69386982654485
 30
0.0
 11
2.89666205317351
 21
1.79914796068362
 31
0.0
  0
LINE
  8
0
  6
CONTINUOUS
 62
0
 10
2.92111108763073
 20
1.703175175673
 30
0.0
 11
2.72435954901401
 21
1.24389865922534
 31
0.0
  0
ARC
  8
3
  6
CONTINUOUS
 62
3
 10
2.90158407713635
 20
1.80919135513353
 30
0.0
 40
0.157480314920243
 50
240.4713442186
 51
279.28280652348
  0
ARC
  8
3
  6
CONTINUOUS
 62
3
 10
2.90158407716188
 20
1.80919135515264
 30
0.0
 40
0.15748031493499
 50
279.28280651319
 51
337.49999999109
  0
LINE
  8
3
  6
CONTINUOUS
 62
3
 10
3.41080901630925
 20
1.59826347906213
 30
0.0
 11
3.45911940932162
 21
1.71489508507648
 31
0.0
  0
LINE
  8
3
  6
CONTINUOUS
 62
3
 10
3.45911940932162
 20
1.71489508507648
 30
0.0
 11
3.86170601775807
 21
2.68682513519599
 31
0.0
  0
LINE
  8
3
  6
CONTINUOUS
 62
3
 10
5.61040339806515
 20
1.74892624771092
 30
0.0
 11
5.56611887113714
 21
1.85583855322368
 31
0.0
  0
LINE
  8
3
  6
CONTINUOUS
 62
3
 10
5.56611887113714
 20
1.85583855322368
 30
0.0
 11
5.15950639661633
 21
2.83748790384084
 31
0.0
  0
LINE
  8
3
  6
CONTINUOUS
 62
3
 10
7.05921683587951
 20
3.41080901629026
 30
0.0
 11
6.50521670731139
 21
3.64028338309904
 31
0.0
  0
LINE
  8
3
  6
CONTINUOUS
 62
3
 10
6.50521670731139
 20
3.64028338309904
 30
0.0
 11
5.97065517974565
 21
3.86170601773908
 31
0.0
  0
ARC
  8
3
  6
CONTINUOUS
 62
3
 10
6.84828895981184
 20
5.75589623777601
 30
0.0
 40
0.157480314901724
 50
292.499999981177
 51
319.499999982532
  0
ARC
  8
3
  6
CONTINUOUS
 62
3
 10
6.84828895977623
 20
5.75589623782501
 30
0.0
 40
0.157480314960626
 50
319.499999977388
 51
29.5286557588134
  0
ARC
  8
3
  6
CONTINUOUS
 62
3
 10
5.10117845895823
 20
7.11948194331499
 30
0.0
 40
0.157480314881446
 50
337.499999981178
 51
357.749999984227
  0
ARC
  8
3
  6
CONTINUOUS
 62
3
 10
5.10117845887966
 20
7.11948194333223
 30
0.0
 40
0.157480314960631
 50
357.749999979081
 51
74.5286557588122
  0
ARC
  8
3
  6
CONTINUOUS
 62
3
 10
2.90158407718763
 20
6.84828895980196
 30
0.0
 40
0.157480314877925
 50
22.4999999914691
 51
41.9057311541988
  0
ARC
  8
3
  6
CONTINUOUS
 62
3
 10
2.90158407712027
 20
6.84828895977951
 30
0.0
 40
0.157480314943049
 50
41.9057311439085
 51
119.528655763958
  0
LINE
  8
3
  6
CONTINUOUS
 62
3
 10
1.59826347908112
 20
5.2466712986324
 30
0.0
 11
2.15226360764925
 21
5.01719693182363
 31
0.0
  0
LINE
  8
3
  6
CONTINUOUS
 62
3
 10
2.15226360764925
 20
5.01719693182363
 30
0.0
 11
2.68682513521498
 21
4.79577429718358
 31
0.0
  0
ENDSEC
  0
EOF
