  0
SECTION
  2
HEADER
  9
$ACADVER
  1
AC1003
  9
$EXTMIN
 10
0.999999999920838
 20
7.10629921255473
  9
$EXTMAX
 10
7.10629921245343
 20
0.999999999647679
  9
$INSBASE
 10
4.05314960618713
 20
4.0531496061012
999
Created with OMAX Layout for Windows. (http://www.omax.com) 2017-03-16
  0
ENDSEC
  0
SECTION
  2
TABLES
  0
TABLE
  2
LAYER
 70
    10
  0
LAYER
  2
0
 70
     0
 62
     7
  6
CONTINUOUS
  0
LAYER
  2
1
 70
     0
 62
     7
  6
CONTINUOUS
  0
LAYER
  2
2
 70
     0
 62
     7
  6
CONTINUOUS
  0
LAYER
  2
3
 70
     0
 62
     7
  6
CONTINUOUS
  0
LAYER
  2
4
 70
     0
 62
     7
  6
CONTINUOUS
  0
LAYER
  2
5
 70
     0
 62
     7
  6
CONTINUOUS
  0
LAYER
  2
6
 70
     0
 62
     7
  6
CONTINUOUS
  0
LAYER
  2
7
 70
     0
 62
     7
  6
CONTINUOUS
  0
LAYER
  2
8
 70
     0
 62
     7
  6
CONTINUOUS
  0
LAYER
  2
9
 70
     0
 62
     7
  6
CONTINUOUS
  0
LAYER
  2
10
 70
     0
 62
     7
  6
CONTINUOUS
  0
LAYER
  2
11
 70
     0
 62
     7
  6
CONTINUOUS
  0
LAYER
  2
12
 70
     0
 62
     7
  6
CONTINUOUS
  0
LAYER
  2
13
 70
     0
 62
     7
  6
CONTINUOUS
  0
LAYER
  2
14
 70
     0
 62
     7
  6
CONTINUOUS
  0
LAYER
  2
15
 70
     0
 62
     7
  6
CONTINUOUS
  0
LAYER
  2
16
 70
     0
 62
     7
  6
CONTINUOUS
  0
LAYER
  2
17
 70
     0
 62
     7
  6
CONTINUOUS
  0
LAYER
  2
18
 70
     0
 62
     7
  6
CONTINUOUS
  0
LAYER
  2
19
 70
     0
 62
     7
  6
CONTINUOUS
  0
LAYER
  2
20
 70
     0
 62
     7
  6
CONTINUOUS
  0
LAYER
  2
21
 70
     0
 62
     7
  6
CONTINUOUS
  0
LAYER
  2
22
 70
     0
 62
     7
  6
CONTINUOUS
  0
LAYER
  2
23
 70
     0
 62
     7
  6
CONTINUOUS
  0
LAYER
  2
24
 70
     0
 62
     7
  6
CONTINUOUS
  0
LAYER
  2
25
 70
     0
 62
     7
  6
CONTINUOUS
  0
LAYER
  2
26
 70
     0
 62
     7
  6
CONTINUOUS
  0
LAYER
  2
27
 70
     0
 62
     7
  6
CONTINUOUS
  0
LAYER
  2
28
 70
     0
 62
     7
  6
CONTINUOUS
  0
LAYER
  2
29
 70
     0
 62
     7
  6
CONTINUOUS
  0
LAYER
  2
30
 70
     0
 62
     7
  6
CONTINUOUS
  0
LAYER
  2
31
 70
     0
 62
     7
  6
CONTINUOUS
  0
ENDTAB
  0
ENDSEC
  0
SECTION
  2
ENTITIES
  0
ARC
  8
3
  6
CONTINUOUS
 62
3
 10
7.07289858801549
 20
2.80867289735643
 30
0.0
 40
0.247426648398173
 50
128.13066811567
 51
129.931110285563
  0
ARC
  8
3
  6
CONTINUOUS
 62
3
 10
7.07206922769331
 20
2.80972941015798
 30
0.0
 40
0.246084162035611
 50
129.940929276205
 51
131.746286069221
  0
ARC
  8
3
  6
CONTINUOUS
 62
3
 10
7.07640897524623
 20
2.80480144458505
 30
0.0
 40
0.252650471960551
 50
131.736463001559
 51
133.538354883687
  0
ARC
  8
3
  6
CONTINUOUS
 62
3
 10
7.0739258761579
 20
2.80759188286078
 30
0.0
 40
0.248917217817254
 50
133.566467621023
 51
135.382219324278
  0
ARC
  8
3
  6
CONTINUOUS
 62
3
 10
7.08016806848477
 20
2.80125554202241
 30
0.0
 40
0.257810972646919
 50
135.354238189215
 51
137.17082321473
  0
ARC
  8
3
  6
CONTINUOUS
 62
3
 10
7.07589775088698
 20
2.80547316782776
 30
0.0
 40
0.251812058092937
 50
137.2140803728
 51
139.052222937271
  0
ARC
  8
3
  6
CONTINUOUS
 62
3
 10
7.08043675035818
 20
2.80123161166892
 30
0.0
 40
0.258020291170452
 50
139.001382464707
 51
140.845634163902
  0
ARC
  8
3
  6
CONTINUOUS
 62
3
 10
7.08136220139282
 20
2.800524302448
 30
0.0
 40
0.259184535913835
 50
140.853561331375
 51
142.694028807009
  0
ARC
  8
3
  6
CONTINUOUS
 62
3
 10
7.0838670937824
 20
2.7986143926305
 30
0.0
 40
0.262334494702328
 50
142.693806337408
 51
144.531612027174
  0
ARC
  8
3
  6
CONTINUOUS
 62
3
 10
7.08333223296613
 20
2.79902191768184
 30
0.0
 40
0.261662417883538
 50
144.536330361501
 51
146.37649980611
  0
ARC
  8
3
  6
CONTINUOUS
 62
3
 10
7.08701095812786
 20
2.79654927348519
 30
0.0
 40
0.266094856880677
 50
146.371779010404
 51
148.202385901469
  0
ARC
  8
3
  6
CONTINUOUS
 62
3
 10
7.08477617937999
 20
2.79804168188298
 30
0.0
 40
0.263409120953337
 50
148.222151438922
 51
150.06245912442
  0
ARC
  8
3
  6
CONTINUOUS
 62
3
 10
7.08978719781595
 20
2.79504941047058
 30
0.0
 40
0.269244844642464
 50
150.04283124632
 51
151.883370915217
  0
ARC
  8
3
  6
CONTINUOUS
 62
3
 10
7.085408746261
 20
2.79757279741253
 30
0.0
 40
0.264193952159205
 50
151.918542650379
 51
153.776631583491
  0
ARC
  8
3
  6
CONTINUOUS
 62
3
 10
7.08669347956677
 20
2.79661947765957
 30
0.0
 40
0.265767859037571
 50
153.714647413875
 51
155.583498172831
  0
ARC
  8
3
  6
CONTINUOUS
 62
3
 10
7.09033853343707
 20
2.79510509649979
 30
0.0
 40
0.269712941239906
 50
155.610647453865
 51
157.466120786346
  0
ARC
  8
3
  6
CONTINUOUS
 62
3
 10
7.0876239102058
 20
2.79616413505914
 30
0.0
 40
0.266799723357874
 50
157.452776117499
 51
159.310187480442
  0
ARC
  8
3
  6
CONTINUOUS
 62
3
 10
7.0894153378297
 20
2.79555333003294
 30
0.0
 40
0.268691425855549
 50
159.323304801187
 51
161.17415178523
  0
ARC
  8
3
  6
CONTINUOUS
 62
3
 10
7.08768678730757
 20
2.79614264689859
 30
0.0
 40
0.26686517798747
 50
161.174151774951
 51
163.017955740138
  0
ARC
  8
3
  6
CONTINUOUS
 62
3
 10
7.08746469675452
 20
2.79622377723729
 30
0.0
 40
0.26662907580028
 50
163.020690493781
 51
164.865681108578
  0
ARC
  8
3
  6
CONTINUOUS
 62
3
 10
7.08760133457253
 20
2.79617434211318
 30
0.0
 40
0.266773881460346
 50
164.863093792216
 51
166.708163216849
  0
ARC
  8
3
  6
CONTINUOUS
 62
3
 10
7.08379415693913
 20
2.79720412317288
 30
0.0
 40
0.262831964424449
 50
166.735822854975
 51
168.59470728926
  0
ARC
  8
3
  6
CONTINUOUS
 62
3
 10
7.07907621161454
 20
2.79777214878317
 30
0.0
 40
0.258095133024596
 50
168.511202805895
 51
170.37670102899
  0
ARC
  8
3
  6
CONTINUOUS
 62
3
 10
7.08695261697262
 20
2.79670114930886
 30
0.0
 40
0.266039869151405
 50
170.432861366058
 51
172.270593577097
  0
ARC
  8
3
  6
CONTINUOUS
 62
3
 10
7.07764075899517
 20
2.79783579951955
 30
0.0
 40
0.256660043316824
 50
172.242007045691
 51
174.083530181717
  0
ARC
  8
3
  6
CONTINUOUS
 62
3
 10
7.08161776071716
 20
2.79755336231244
 30
0.0
 40
0.260645005578531
 50
174.111889662853
 51
175.939250778546
  0
ARC
  8
3
  6
CONTINUOUS
 62
3
 10
7.0751498082141
 20
2.79797155907927
 30
0.0
 40
0.25416367973391
 50
175.93003626803
 51
177.756573881393
  0
ARC
  8
3
  6
CONTINUOUS
 62
3
 10
7.07653694183554
 20
2.79795993643903
 30
0.0
 40
0.255550208700053
 50
177.766144285952
 51
179.588071074752
  0
ARC
  8
3
  6
CONTINUOUS
 62
3
 10
7.07165264684558
 20
2.79798399262739
 30
0.0
 40
0.250665867235178
 50
179.58554307755
 51
181.409679817635
  0
ARC
  8
3
  6
CONTINUOUS
 62
3
 10
7.07197038315832
 20
2.7980019436271
 30
0.0
 40
0.250983949202556
 50
181.411992092826
 51
183.234970133536
  0
ARC
  8
3
  6
CONTINUOUS
 62
3
 10
7.06508136770684
 20
2.79744447707381
 30
0.0
 40
0.244074510708822
 50
183.195573705102
 51
185.022579893611
  0
ARC
  8
3
  6
CONTINUOUS
 62
3
 10
7.07046321949481
 20
2.79809113281184
 30
0.0
 40
0.249492371266426
 50
185.062309389946
 51
186.869683176686
  0
ARC
  8
3
  6
CONTINUOUS
 62
3
 10
1.03422998489971
 20
5.29656980211028
 30
0.0
 40
0.246084162006548
 50
309.940929273353
 51
311.746286066384
  0
ARC
  8
3
  6
CONTINUOUS
 62
3
 10
1.02989023733848
 20
5.30149776774264
 30
0.0
 40
0.252650471981374
 50
311.736462991227
 51
313.538354873356
  0
ARC
  8
3
  6
CONTINUOUS
 62
3
 10
1.03237333647543
 20
5.2987073294148
 30
0.0
 40
0.248917217766786
 50
313.566467610691
 51
315.382219313948
  0
ARC
  8
3
  6
CONTINUOUS
 62
3
 10
1.02613114408989
 20
5.30504367031382
 30
0.0
 40
0.257810972680837
 50
315.354238178812
 51
317.170823204325
  0
ARC
  8
3
  6
CONTINUOUS
 62
3
 10
1.03040146173622
 20
5.30082604446019
 30
0.0
 40
0.251812058058402
 50
317.2140803627
 51
319.05222292717
  0
ARC
  8
3
  6
CONTINUOUS
 62
3
 10
1.02586246224522
 20
5.30506760063943
 30
0.0
 40
0.258020291164288
 50
319.001382454311
 51
320.845634153503
  0
ARC
  8
3
  6
CONTINUOUS
 62
3
 10
1.02493701121941
 20
5.30577490985281
 30
0.0
 40
0.25918453589605
 50
320.853561321083
 51
322.694028796719
  0
ARC
  8
3
  6
CONTINUOUS
 62
3
 10
1.02243211881339
 20
5.30768481968369
 30
0.0
 40
0.262334494705735
 50
322.693806327094
 51
324.531612016863
  0
ARC
  8
3
  6
CONTINUOUS
 62
3
 10
1.02296697965289
 20
5.30727729461605
 30
0.0
 40
0.261662417858551
 50
324.536330351119
 51
326.376499795726
  0
ARC
  8
3
  6
CONTINUOUS
 62
3
 10
1.01928825445771
 20
5.30974993883572
 30
0.0
 40
0.266094856896304
 50
326.371779000055
 51
328.202385891113
  0
ARC
  8
3
  6
CONTINUOUS
 62
3
 10
1.02152303324681
 20
5.30825753041187
 30
0.0
 40
0.263409120920171
 50
328.222151428554
 51
330.06245911406
  0
ARC
  8
3
  6
CONTINUOUS
 62
3
 10
1.01651201475756
 20
5.31124980185582
 30
0.0
 40
0.269244844671243
 50
330.04283123603
 51
331.883370904927
  0
ARC
  8
3
  6
CONTINUOUS
 62
3
 10
1.02089046634458
 20
5.30872641489414
 30
0.0
 40
0.264193952150377
 50
331.918542640386
 51
333.776631573498
  0
ARC
  8
3
  6
CONTINUOUS
 62
3
 10
1.01960573305213
 20
5.30967973464346
 30
0.0
 40
0.26576785901523
 50
333.714647403371
 51
335.58349816233
  0
ARC
  8
3
  6
CONTINUOUS
 62
3
 10
1.01596067914627
 20
5.31119411581823
 30
0.0
 40
0.269712941256115
 50
335.610647443739
 51
337.46612077622
  0
ARC
  8
3
  6
CONTINUOUS
 62
3
 10
1.01867530240251
 20
5.31013507724956
 30
0.0
 40
0.266799723347462
 50
337.452776107054
 51
339.310187469993
  0
ARC
  8
3
  6
CONTINUOUS
 62
3
 10
1.01688387475828
 20
5.31074588228293
 30
0.0
 40
0.268691425866686
 50
339.323304790914
 51
341.174151774955
  0
ARC
  8
3
  6
CONTINUOUS
 62
3
 10
1.01861242529022
 20
5.31015656541372
 30
0.0
 40
0.266865177988165
 50
341.17415176465
 51
343.017955729827
  0
ARC
  8
3
  6
CONTINUOUS
 62
3
 10
1.01883451584461
 20
5.31007543507433
 30
0.0
 40
0.266629075799495
 50
343.020690483518
 51
344.865681098328
  0
ARC
  8
3
  6
CONTINUOUS
 62
3
 10
1.01869787800456
 20
5.31012487020481
 30
0.0
 40
0.266773881482496
 50
344.863093781887
 51
346.708163206519
  0
ARC
  8
3
  6
CONTINUOUS
 62
3
 10
1.02250505563271
 20
5.30909508914347
 30
0.0
 40
0.262831964451312
 50
346.735822845098
 51
348.594707279381
  0
ARC
  8
3
  6
CONTINUOUS
 62
3
 10
1.02722300102771
 20
5.30852706352175
 30
0.0
 40
0.258095132980246
 50
348.511202795218
 51
350.376701018316
  0
ARC
  8
3
  6
CONTINUOUS
 62
3
 10
1.01934659557378
 20
5.30959806301033
 30
0.0
 40
0.266039869203899
 50
350.43286135611
 51
352.270593567149
  0
ARC
  8
3
  6
CONTINUOUS
 62
3
 10
1.02865845362581
 20
5.30846341279059
 30
0.0
 40
0.256660043294216
 50
352.242007035141
 51
354.083530171168
  0
ARC
  8
3
  6
CONTINUOUS
 62
3
 10
1.02468145184467
 20
5.30874585000268
 30
0.0
 40
0.260645005615253
 50
354.111889652712
 51
355.939250768406
  0
ARC
  8
3
  6
CONTINUOUS
 62
3
 10
1.0311494043924
 20
5.30832765323248
 30
0.0
 40
0.25416367972584
 50
355.930036257673
 51
357.756573871035
  0
ARC
  8
3
  6
CONTINUOUS
 62
3
 10
1.02976227073452
 20
5.30833927585096
 30
0.0
 40
0.255550208727541
 50
357.766144280845
 51
359.588071069645
  0
ARC
  8
3
  6
CONTINUOUS
 62
3
 10
1.03464656433731
 20
5.30831521967232
 30
0.0
 40
0.250665868649872
 50
359.585543072416
 51
1.4096798228007
  0
ARC
  8
3
  6
CONTINUOUS
 62
3
 10
1.03432882947902
 20
5.30829726868785
 30
0.0
 40
0.250983949162875
 50
1.41199210267661
 51
3.23497014337888
  0
ARC
  8
3
  6
CONTINUOUS
 62
3
 10
1.04121784486118
 20
5.30885473523505
 30
0.0
 40
0.244074510738662
 50
3.19557371573604
 51
5.02257990424463
  0
ARC
  8
3
  6
CONTINUOUS
 62
3
 10
1.03583601001309
 20
5.30820807218054
 30
0.0
 40
0.249492355068093
 50
5.06231141728779
 51
6.8696852040288
  0
ARC
  8
3
  6
CONTINUOUS
 62
3
 10
6.46105610440902
 20
5.05053713460404
 30
0.0
 40
0.0532499999956283
 50
126.99999998872
 51
269.999999998651
  0
ARC
  8
3
  6
CONTINUOUS
 62
3
 10
6.46105610441912
 20
5.05053713460662
 30
0.0
 40
0.0532499999982082
 50
269.999999987781
 51
359.99999999807
  0
ARC
  8
3
  6
CONTINUOUS
 62
3
 10
3.0557620778504
 20
6.46105610426217
 30
0.0
 40
0.0532499999999998
 50
2.57197462649356E-9
 51
179.999999987136
  0
ARC
  8
3
  6
CONTINUOUS
 62
3
 10
1.64524310818269
 20
3.05576207770572
 30
0.0
 40
0.0532499999978825
 50
305.99999998206
 51
90.0000000016993
  0
ARC
  8
3
  6
CONTINUOUS
 62
3
 10
1.64524310817453
 20
3.05576207771018
 30
0.0
 40
0.0532499999934244
 50
89.9999999929241
 51
180.000000003214
  0
ARC
  8
3
  6
CONTINUOUS
 62
3
 10
5.05053713474445
 20
1.64524310803312
 30
0.0
 40
0.0532500000000002
 50
179.999999994854
 51
359.999999994855
  0
ARC
  8
3
  6
CONTINUOUS
 62
3
 10
5.05053713474284
 20
1.64524310804539
 30
0.0
 40
0.053249999998382
 50
44.9999999919361
 51
180.000000008062
  0
ARC
  8
3
  6
CONTINUOUS
 62
3
 10
4.05314960630167
 20
4.05314960613225
 30
0.0
 40
0.187598425184791
 50
216.21122173088
 51
359.999999996969
  0
ARC
  8
3
  6
CONTINUOUS
 62
3
 10
4.0531496063057
 20
4.05314960617574
 30
0.0
 40
0.187598425180761
 50
359.999999983686
 51
139.485765778795
  0
ARC
  8
3
  6
CONTINUOUS
 62
3
 10
4.05314960624467
 20
4.05314960615145
 30
0.0
 40
0.18759842515014
 50
139.485765761045
 51
216.211221745897
  0
LINE
  8
3
  6
CONTINUOUS
 62
3
 10
6.47180298697945
 20
3.26437990397791
 30
0.0
 11
5.86009124736653
 21
3.51775920277851
 31
0.0
  0
LINE
  8
3
  6
CONTINUOUS
 62
3
 10
6.32114021832262
 20
5.2056514077673
 30
0.0
 11
5.70942847871902
 21
4.95227210895371
 31
0.0
  0
LINE
  8
3
  6
CONTINUOUS
 62
3
 10
2.90064780467712
 20
6.32114021820556
 30
0.0
 11
3.15402710350354
 21
5.70942847860726
 31
0.0
  0
LINE
  8
3
  6
CONTINUOUS
 62
3
 10
2.24620796517699
 20
3.51775920276328
 30
0.0
 11
1.6344962255694
 21
3.26437990394979
 31
0.0
  0
LINE
  8
3
  6
CONTINUOUS
 62
3
 10
1.63449622559285
 20
4.84191930834493
 30
0.0
 11
2.24620796521109
 21
4.58854000955718
 31
0.0
  0
LINE
  8
3
  6
CONTINUOUS
 62
3
 10
4.84191930847732
 20
6.47180298683625
 30
0.0
 11
4.58854000968956
 21
5.86009124721801
 31
0.0
  0
LINE
  8
3
  6
CONTINUOUS
 62
3
 10
3.26437990409736
 20
1.63449622545501
 30
0.0
 11
3.51775920289805
 21
2.2462079650679
 31
0.0
  0
LINE
  8
3
  6
CONTINUOUS
 62
3
 10
5.20565140789755
 20
1.78515899412725
 30
0.0
 11
4.95227210908407
 21
2.39687073373089
 31
0.0
  0
LINE
  8
3
  6
CONTINUOUS
 62
3
 10
1.78515899424968
 20
2.90064780453391
 30
0.0
 11
2.39687073384797
 21
3.15402710336034
 31
0.0
  0
ARC
  8
3
  6
CONTINUOUS
 62
3
 10
4.05314960620712
 20
4.05314960630843
 30
0.0
 40
3.0531496062463
 50
339.887903706018
 51
155.112096283466
  0
ARC
  8
3
  6
CONTINUOUS
 62
3
 10
4.05314960627292
 20
4.05314960599976
 30
0.0
 40
3.05314960635208
 50
159.887903716181
 51
335.112096274277
  0
ARC
  8
3
  6
CONTINUOUS
 62
3
 10
6.53206809459642
 20
3.40987274342925
 30
0.0
 40
0.157480314730754
 50
247.499999903177
 51
345.452674716267
  0
ARC
  8
3
  6
CONTINUOUS
 62
3
 10
4.0531496095374
 20
4.05314960592164
 30
0.0
 40
2.71850393379117
 50
345.452674780148
 51
14.5473252198509
  0
ARC
  8
3
  6
CONTINUOUS
 62
3
 10
6.53206809446275
 20
4.69642646860896
 30
0.0
 40
0.157480314943079
 50
14.547325190392
 51
112.500000003481
  0
ARC
  8
3
  6
CONTINUOUS
 62
3
 10
5.92035635485406
 20
4.44304716979094
 30
0.0
 40
0.15748031495377
 50
112.500000002474
 51
191.794641385774
  0
ARC
  8
3
  6
CONTINUOUS
 62
3
 10
4.05314960970344
 20
4.05314960615823
 30
0.0
 40
1.74999999666313
 50
348.205358593877
 51
11.7946414061219
  0
ARC
  8
3
  6
CONTINUOUS
 62
3
 10
5.92035635482826
 20
3.66325204252449
 30
0.0
 40
0.157480314943563
 50
168.20535861308
 51
247.49999999638
  0
ARC
  8
3
  6
CONTINUOUS
 62
3
 10
6.26087511088932
 20
5.35114424752653
 30
0.0
 40
0.157480314944931
 50
292.49999999222
 51
30.4526748053104
  0
ARC
  8
3
  6
CONTINUOUS
 62
3
 10
4.05314960895112
 20
4.05314960884382
 30
0.0
 40
2.71850393333609
 50
30.4526747822937
 51
59.5473252167275
  0
ARC
  8
3
  6
CONTINUOUS
 62
3
 10
5.35114424766461
 20
6.26087511076606
 30
0.0
 40
0.157480314943079
 50
59.5473251903919
 51
157.500000003482
  0
ARC
  8
3
  6
CONTINUOUS
 62
3
 10
5.09776494886712
 20
5.6491633711523
 30
0.0
 40
0.157480314954801
 50
157.500000002308
 51
236.794641385608
  0
ARC
  8
3
  6
CONTINUOUS
 62
3
 10
4.05314960845942
 20
4.0531496083662
 30
0.0
 40
1.7499999969797
 50
33.2053585958301
 51
56.7946414028486
  0
ARC
  8
3
  6
CONTINUOUS
 62
3
 10
5.64916337127567
 20
5.09776494870731
 30
0.0
 40
0.157480314943567
 50
213.205358602789
 51
292.49999999638
  0
ARC
  8
3
  6
CONTINUOUS
 62
3
 10
2.75515496493465
 20
6.26087511076387
 30
0.0
 40
0.157480314932645
 50
22.4999999973708
 51
120.452674810461
  0
ARC
  8
3
  6
CONTINUOUS
 62
3
 10
4.05314960359174
 20
4.05314960878819
 30
0.0
 40
2.71850393334313
 50
120.452674781726
 51
149.547325216159
  0
ARC
  8
3
  6
CONTINUOUS
 62
3
 10
1.84542410170399
 20
5.35114424753617
 30
0.0
 40
0.157480314962378
 50
149.547325197754
 51
247.500000000554
  0
ARC
  8
3
  6
CONTINUOUS
 62
3
 10
2.45713584130946
 20
5.09776494870274
 30
0.0
 40
0.15748031493773
 50
247.499999997168
 51
326.794641390758
  0
ARC
  8
3
  6
CONTINUOUS
 62
3
 10
4.05314960411303
 20
4.05314960834019
 30
0.0
 40
1.74999999698668
 50
123.205358596918
 51
146.794641403935
  0
ARC
  8
3
  6
CONTINUOUS
 62
3
 10
3.00853426373317
 20
5.64916337115981
 30
0.0
 40
0.157480314960631
 50
303.205358601833
 51
22.4999999954239
  0
ARC
  8
3
  6
CONTINUOUS
 62
3
 10
1.57423111813792
 20
4.6964264686099
 30
0.0
 40
0.157480314930845
 50
67.499999997142
 51
165.452674810231
  0
ARC
  8
3
  6
CONTINUOUS
 62
3
 10
4.0531496032398
 20
4.05314960606665
 30
0.0
 40
2.71850393402882
 50
167.664189312149
 51
194.547325210982
  0
ARC
  8
3
  6
CONTINUOUS
 62
3
 10
1.57423111812529
 20
3.40987274370823
 30
0.0
 40
0.15748031494833
 50
194.547325182873
 51
292.499999995963
  0
ARC
  8
3
  6
CONTINUOUS
 62
3
 10
2.1859428575363
 20
3.66325204265447
 30
0.0
 40
0.157480315146205
 50
292.500000043556
 51
11.7946414371464
  0
ARC
  8
3
  6
CONTINUOUS
 62
3
 10
4.05314960319988
 20
4.05314960629686
 30
0.0
 40
1.74999999694623
 50
168.205358601428
 51
191.794641398571
  0
ARC
  8
3
  6
CONTINUOUS
 62
3
 10
2.1859428577404
 20
4.44304716979644
 30
0.0
 40
0.157480314960628
 50
348.205358601834
 51
67.4999999954244
  0
ARC
  8
3
  6
CONTINUOUS
 62
3
 10
4.69642646873633
 20
6.53206809430895
 30
0.0
 40
0.157480314943145
 50
337.499999991997
 51
75.4526748050873
  0
ARC
  8
3
  6
CONTINUOUS
 62
3
 10
4.05314960627098
 20
4.05314960993672
 30
0.0
 40
2.718503933332
 50
75.4526747822093
 51
104.547325216644
  0
ARC
  8
3
  6
CONTINUOUS
 62
3
 10
3.40987274386305
 20
6.5320680943112
 30
0.0
 40
0.157480314955382
 50
104.547325195538
 51
202.499999998337
  0
ARC
  8
3
  6
CONTINUOUS
 62
3
 10
3.66325204265317
 20
5.9203563546919
 30
0.0
 40
0.157480314936237
 50
202.499999997652
 51
281.794641391242
  0
ARC
  8
3
  6
CONTINUOUS
 62
3
 10
4.05314960629163
 20
4.05314960924724
 30
0.0
 40
1.74999999698451
 50
78.2053585967258
 51
101.794641403745
  0
ARC
  8
3
  6
CONTINUOUS
 62
3
 10
4.44304716995
 20
5.92035635469523
 30
0.0
 40
0.157480314943563
 50
258.205358596689
 51
337.499999990279
  0
ARC
  8
3
  6
CONTINUOUS
 62
3
 10
3.40987274357759
 20
1.57423111784854
 30
0.0
 40
0.15748031475343
 50
157.499999910729
 51
255.452674713529
  0
ARC
  8
3
  6
CONTINUOUS
 62
3
 10
4.05314960626508
 20
4.05314960329737
 30
0.0
 40
2.71850393424017
 50
255.452674778073
 51
284.547325212439
  0
ARC
  8
3
  6
CONTINUOUS
 62
3
 10
4.69642646873539
 20
1.57423111800083
 30
0.0
 40
0.157480314955382
 50
284.547325185246
 51
22.4999999983369
  0
ARC
  8
3
  6
CONTINUOUS
 62
3
 10
4.44304716983019
 20
2.18594285740239
 30
0.0
 40
0.157480315125873
 50
22.500000054822
 51
101.794641448412
  0
ARC
  8
3
  6
CONTINUOUS
 62
3
 10
4.05314960630679
 20
4.05314960236862
 30
0.0
 40
1.74999999630303
 50
258.205358591141
 51
281.794641398114
  0
ARC
  8
3
  6
CONTINUOUS
 62
3
 10
3.66325204264843
 20
2.18594285761681
 30
0.0
 40
0.157480314943563
 50
78.2053586069794
 51
157.500000000569
  0
ARC
  8
3
  6
CONTINUOUS
 62
3
 10
5.35114424755813
 20
1.84542410126206
 30
0.0
 40
0.157480314739556
 50
202.499999905619
 51
300.452674718709
  0
ARC
  8
3
  6
CONTINUOUS
 62
3
 10
4.05314960833958
 20
4.05314960415157
 30
0.0
 40
2.71850393422238
 50
300.452674776851
 51
329.547325211284
  0
ARC
  8
3
  6
CONTINUOUS
 62
3
 10
6.2608751108915
 20
2.75515496478467
 30
0.0
 40
0.157480314955381
 50
329.547325185246
 51
67.4999999983365
  0
ARC
  8
3
  6
CONTINUOUS
 62
3
 10
5.64916337136158
 20
3.00853426337394
 30
0.0
 40
0.157480315127378
 50
67.5000000543371
 51
146.794641447927
  0
ARC
  8
3
  6
CONTINUOUS
 62
3
 10
4.05314960898007
 20
4.05314960347712
 30
0.0
 40
1.74999999630183
 50
303.205358591311
 51
326.794641398328
  0
ARC
  8
3
  6
CONTINUOUS
 62
3
 10
5.09776494884409
 20
2.45713584115875
 30
0.0
 40
0.157480314943567
 50
123.205358606978
 51
202.499999990279
  0
ARC
  8
3
  6
CONTINUOUS
 62
3
 10
1.84542410139572
 20
2.75515496486861
 30
0.0
 40
0.157480314748217
 50
112.499999908742
 51
210.452674711542
  0
ARC
  8
3
  6
CONTINUOUS
 62
3
 10
4.0531496042132
 20
4.05314960412225
 30
0.0
 40
2.71850393418671
 50
210.452674777842
 51
239.547325212837
  0
ARC
  8
3
  6
CONTINUOUS
 62
3
 10
2.75515496492786
 20
1.84542410156374
 30
0.0
 40
0.157480314955382
 50
239.547325185247
 51
337.499999998337
  0
ARC
  8
3
  6
CONTINUOUS
 62
3
 10
3.00853426351346
 20
2.45713584110563
 30
0.0
 40
0.157480315135364
 50
337.500000050823
 51
56.794641444414
  0
ARC
  8
3
  6
CONTINUOUS
 62
3
 10
4.05314960357314
 20
4.05314960348331
 30
0.0
 40
1.74999999626682
 50
213.20535859238
 51
236.794641399768
  0
ARC
  8
3
  6
CONTINUOUS
 62
3
 10
2.45713584130196
 20
3.00853426361114
 30
0.0
 40
0.157480314943566
 50
33.2053586069798
 51
112.50000000057
  0
LINE
  8
9
  6
CONTINUOUS
 62
9
 10
1.09075339057295
 20
5.21659333397074
 30
0.0
 11
1.18921490208558
 21
5.10542366852773
 31
0.0
  0
LINE
  8
9
  6
CONTINUOUS
 62
9
 10
1.15960091181001
 20
5.14539958727838
 30
0.0
 11
1.18921490208558
 21
5.10542366852773
 31
0.0
  0
LINE
  8
9
  6
CONTINUOUS
 62
9
 10
1.54373078628161
 20
4.60856533160969
 30
0.0
 11
1.39740984499228
 21
4.63393353817357
 31
0.0
  0
LINE
  8
9
  6
CONTINUOUS
 62
9
 10
1.44550135623083
 20
4.62119505134065
 30
0.0
 11
1.39740984499228
 21
4.63393353817357
 31
0.0
  0
LINE
  8
9
  6
CONTINUOUS
 62
9
 10
1.95064621928755
 20
5.29769066727382
 30
0.0
 11
1.89985494542184
 21
5.15814278924208
 31
0.0
  0
LINE
  8
9
  6
CONTINUOUS
 62
9
 10
1.92088020394537
 20
5.20323160164626
 30
0.0
 11
1.89985494542184
 21
5.15814278924208
 31
0.0
  0
LINE
  8
9
  6
CONTINUOUS
 62
9
 10
3.0535634164984
 20
6.46227514791489
 30
0.0
 11
3.01268192289881
 21
6.4297565395911
 31
0.0
  0
LINE
  8
9
  6
CONTINUOUS
 62
9
 10
3.05416774255166
 20
6.4572154046028
 30
0.0
 11
3.01268192289881
 21
6.4297565395911
 31
0.0
  0
LINE
  8
9
  6
CONTINUOUS
 62
9
 10
3.40688811222055
 20
6.51544739167587
 30
0.0
 11
3.27229800718831
 21
6.45268699499554
 31
0.0
  0
LINE
  8
9
  6
CONTINUOUS
 62
9
 10
3.31904771507321
 20
6.4697024971238
 30
0.0
 11
3.27229800718831
 21
6.45268699499554
 31
0.0
  0
LINE
  8
9
  6
CONTINUOUS
 62
9
 10
5.2976906674079
 20
6.15565299314262
 30
0.0
 11
5.15814278938528
 21
6.20644426703339
 31
0.0
  0
LINE
  8
9
  6
CONTINUOUS
 62
9
 10
5.20323160178568
 20
6.18541900850177
 30
0.0
 11
5.15814278938528
 21
6.20644426703339
 31
0.0
  0
LINE
  8
9
  6
CONTINUOUS
 62
9
 10
6.4622365904591
 20
5.05275673633405
 30
0.0
 11
6.42900945443718
 21
5.09306447551688
 31
0.0
  0
LINE
  8
9
  6
CONTINUOUS
 62
9
 10
6.45718816471428
 20
5.05206419762612
 30
0.0
 11
6.42900945443718
 21
5.09306447551688
 31
0.0
  0
LINE
  8
9
  6
CONTINUOUS
 62
9
 10
6.5154473917949
 20
4.69941110022341
 30
0.0
 11
6.45268699513874
 21
4.83400120526692
 31
0.0
  0
LINE
  8
9
  6
CONTINUOUS
 62
9
 10
6.46970249725861
 20
4.78725149737897
 30
0.0
 11
6.45268699513874
 21
4.83400120526692
 31
0.0
  0
LINE
  8
9
  6
CONTINUOUS
 62
9
 10
6.15565299328583
 20
2.80860854504733
 30
0.0
 11
6.2064442671766
 21
2.94815642306995
 31
0.0
  0
LINE
  8
9
  6
CONTINUOUS
 62
9
 10
6.18541900864498
 20
2.90306761066955
 30
0.0
 11
6.2064442671766
 21
2.94815642306995
 31
0.0
  0
LINE
  8
9
  6
CONTINUOUS
 62
9
 10
5.05340358655786
 20
1.64493321247675
 30
0.0
 11
5.08819057084517
 21
1.68289654413714
 31
0.0
  0
LINE
  8
9
  6
CONTINUOUS
 62
9
 10
5.05151102333061
 20
1.64928593131727
 30
0.0
 11
5.08819057084517
 21
1.68289654413714
 31
0.0
  0
LINE
  8
9
  6
CONTINUOUS
 62
9
 10
4.69941110036662
 20
1.59085182066033
 30
0.0
 11
4.83400120541013
 21
1.65361221731649
 31
0.0
  0
LINE
  8
9
  6
CONTINUOUS
 62
9
 10
4.78725149752218
 20
1.63659671519663
 30
0.0
 11
4.83400120541013
 21
1.65361221731649
 31
0.0
  0
LINE
  8
9
  6
CONTINUOUS
 62
9
 10
2.80860854519053
 20
1.9506462191694
 30
0.0
 11
2.94815642321315
 21
1.89985494527863
 31
0.0
  0
LINE
  8
9
  6
CONTINUOUS
 62
9
 10
2.90306761081275
 20
1.92088020381026
 30
0.0
 11
2.94815642321315
 21
1.89985494527863
 31
0.0
  0
LINE
  8
9
  6
CONTINUOUS
 62
9
 10
1.64402406454014
 20
3.0535634163553
 30
0.0
 11
1.67654267286027
 21
3.01268192275279
 31
0.0
  0
LINE
  8
9
  6
CONTINUOUS
 62
9
 10
1.64908380785229
 20
3.05416774240811
 30
0.0
 11
1.67654267286027
 21
3.01268192275279
 31
0.0
  0
LINE
  8
9
  6
CONTINUOUS
 62
9
 10
4.01766548013535
 20
4.03519684198129
 30
0.0
 11
3.9017868256941
 21
3.9423232654972
 31
0.0
  0
LINE
  8
9
  6
CONTINUOUS
 62
9
 10
3.94317113615181
 20
3.96993488167481
 30
0.0
 11
3.9017868256941
 21
3.9423232654972
 31
0.0
  0
LINE
  8
0
  6
CONTINUOUS
 62
0
 10
1.00014037128926
 20
7.10452166320673
 30
0.0
 11
4.01766548013535
 21
4.03519684198129
 31
0.0
  0
LINE
  8
0
  6
CONTINUOUS
 62
0
 10
3.94317113615181
 20
3.96993488167481
 30
0.0
 11
1.64402406454014
 21
3.0535634163553
 31
0.0
  0
LINE
  8
0
  6
CONTINUOUS
 62
0
 10
1.64908380785229
 20
3.05416774240811
 30
0.0
 11
2.80860854519053
 21
1.9506462191694
 31
0.0
  0
LINE
  8
0
  6
CONTINUOUS
 62
0
 10
2.90306761081275
 20
1.92088020381026
 30
0.0
 11
4.69941110036662
 21
1.59085182066033
 31
0.0
  0
LINE
  8
0
  6
CONTINUOUS
 62
0
 10
4.78725149752218
 20
1.63659671519663
 30
0.0
 11
5.05340358655786
 21
1.64493321247675
 31
0.0
  0
LINE
  8
0
  6
CONTINUOUS
 62
0
 10
5.05151102333061
 20
1.64928593131727
 30
0.0
 11
6.15565299328583
 21
2.80860854504733
 31
0.0
  0
LINE
  8
0
  6
CONTINUOUS
 62
0
 10
6.18541900864498
 20
2.90306761066955
 30
0.0
 11
6.5154473917949
 21
4.69941110022341
 31
0.0
  0
LINE
  8
0
  6
CONTINUOUS
 62
0
 10
6.46970249725861
 20
4.78725149737897
 30
0.0
 11
6.4622365904591
 21
5.05275673633405
 31
0.0
  0
LINE
  8
0
  6
CONTINUOUS
 62
0
 10
6.45718816471428
 20
5.05206419762612
 30
0.0
 11
5.2976906674079
 21
6.15565299314262
 31
0.0
  0
LINE
  8
0
  6
CONTINUOUS
 62
0
 10
5.20323160178568
 20
6.18541900850177
 30
0.0
 11
3.40688811222055
 21
6.51544739167587
 31
0.0
  0
LINE
  8
0
  6
CONTINUOUS
 62
0
 10
3.31904771507321
 20
6.4697024971238
 30
0.0
 11
3.0535634164984
 21
6.46227514791489
 31
0.0
  0
LINE
  8
0
  6
CONTINUOUS
 62
0
 10
3.05416774255166
 20
6.4572154046028
 30
0.0
 11
1.95064621928755
 21
5.29769066727382
 31
0.0
  0
LINE
  8
0
  6
CONTINUOUS
 62
0
 10
1.92088020394537
 20
5.20323160164626
 30
0.0
 11
1.54373078628161
 21
4.60856533160969
 31
0.0
  0
LINE
  8
0
  6
CONTINUOUS
 62
0
 10
1.44550135623083
 20
4.62119505134065
 30
0.0
 11
1.09075339057295
 21
5.21659333397074
 31
0.0
  0
ARC
  8
3
  6
CONTINUOUS
 62
3
 10
1.03340061102426
 20
5.2976263253809
 30
0.0
 40
0.247426665095663
 50
308.130668953136
 51
309.030890032929
  0
ARC
  8
3
  6
CONTINUOUS
 62
3
 10
1.03340061105879
 20
5.29762632540887
 30
0.0
 40
0.247426665095643
 50
309.030890022639
 51
309.931111123011
  0
ARC
  8
3
  6
CONTINUOUS
 62
3
 10
4.05314959392836
 20
4.0531496087373
 30
0.0
 40
2.7185039243618
 50
165.45267478997
 51
167.664189325209
  0
LINE
  8
3
  6
CONTINUOUS
 62
3
 10
2.39687073385196
 20
4.95227210896132
 30
0.0
 11
1.89985494542184
 21
5.15814278924208
 31
0.0
  0
LINE
  8
3
  6
CONTINUOUS
 62
3
 10
1.89985494542184
 20
5.15814278924208
 30
0.0
 11
1.78515899424566
 21
5.20565140776841
 31
0.0
  0
ARC
  8
3
  6
CONTINUOUS
 62
3
 10
3.05576207783568
 20
6.46105610426934
 30
0.0
 40
0.0532499999852836
 50
179.999999994854
 51
215.999999992797
  0
ARC
  8
3
  6
CONTINUOUS
 62
3
 10
3.05576207785195
 20
6.46105610426934
 30
0.0
 40
0.0532499999984461
 50
215.999999982506
 51
359.999999994854
  0
LINE
  8
3
  6
CONTINUOUS
 62
3
 10
3.51775920290768
 20
5.86009124724812
 30
0.0
 11
3.27229800718831
 21
6.45268699499554
 31
0.0
  0
LINE
  8
3
  6
CONTINUOUS
 62
3
 10
3.27229800718831
 20
6.45268699499554
 30
0.0
 11
3.26437990410059
 21
6.47180298685836
 31
0.0
  0
LINE
  8
3
  6
CONTINUOUS
 62
3
 10
4.95227210910452
 20
5.70942847860327
 30
0.0
 11
5.15814278938528
 21
6.20644426703339
 31
0.0
  0
LINE
  8
3
  6
CONTINUOUS
 62
3
 10
5.15814278938528
 20
6.20644426703339
 30
0.0
 11
5.20565140791161
 21
6.32114021820957
 31
0.0
  0
ARC
  8
3
  6
CONTINUOUS
 62
3
 10
6.46105610441971
 20
5.05053713460961
 30
0.0
 40
0.053249999997617
 50
359.999999994855
 51
127.000000001515
  0
LINE
  8
3
  6
CONTINUOUS
 62
3
 10
5.86009124739133
 20
4.58854000954755
 30
0.0
 11
6.45268699513874
 21
4.83400120526692
 31
0.0
  0
LINE
  8
3
  6
CONTINUOUS
 62
3
 10
6.45268699513874
 20
4.83400120526692
 30
0.0
 11
6.47180298700156
 21
4.84191930835464
 31
0.0
  0
LINE
  8
3
  6
CONTINUOUS
 62
3
 10
5.70942847874648
 20
3.1540271033507
 30
0.0
 11
6.2064442671766
 21
2.94815642306995
 31
0.0
  0
LINE
  8
3
  6
CONTINUOUS
 62
3
 10
6.2064442671766
 20
2.94815642306995
 30
0.0
 11
6.32114021835278
 21
2.90064780454362
 31
0.0
  0
ARC
  8
3
  6
CONTINUOUS
 62
3
 10
5.05053713474445
 20
1.64524310804149
 30
0.0
 40
0.0532499999999992
 50
359.99999998585
 51
44.9999999961402
  0
LINE
  8
3
  6
CONTINUOUS
 62
3
 10
4.58854000969075
 20
2.2462079650639
 30
0.0
 11
4.83400120541013
 21
1.65361221731649
 31
0.0
  0
LINE
  8
3
  6
CONTINUOUS
 62
3
 10
4.83400120541013
 20
1.65361221731649
 30
0.0
 11
4.84191930849785
 21
1.63449622545367
 31
0.0
  0
LINE
  8
3
  6
CONTINUOUS
 62
3
 10
3.15402710349391
 20
2.39687073370875
 30
0.0
 11
2.94815642321315
 21
1.89985494527863
 31
0.0
  0
LINE
  8
3
  6
CONTINUOUS
 62
3
 10
2.94815642321315
 20
1.89985494527863
 30
0.0
 11
2.90064780468682
 21
1.78515899410245
 31
0.0
  0
ARC
  8
3
  6
CONTINUOUS
 62
3
 10
1.64524310817867
 20
3.05576207770241
 30
0.0
 40
0.0532499999975637
 50
179.999999994854
 51
305.999999987651
  0
ENDSEC
  0
EOF
